<svg id="chnf" xmlns="http://www.w3.org/2000/svg" viewBox="0 0 81.7 113"><style>.st0{fill:#fff}</style><path class="st0" d="M82 113H0V0h82v113zm-81-1h80V1H1v111z"/><path class="st0" d="M71.7 58.1L13.5 15.4v39.2H9.9V8.4l58.2 42.7V11.9h3.6zm-56.6 6.7c-.1-1.7-.7-2.4-1.6-2.4-1.4 0-1.9 1.2-1.9 4.5s.6 4.5 1.9 4.5c1.1 0 1.7-.7 1.7-2.7h1.2c0 2.4-1.1 3.7-2.9 3.7-1.9 0-3.1-1.5-3.1-5.5 0-4.1 1.2-5.5 3.1-5.5 1.6 0 2.6 1.1 2.7 3.4h-1.1zm6.7-3.2h2.6c1.7 0 2.9 1 2.9 2.8 0 1.2-.5 2.2-1.7 2.6l1.8 5.3h-1.2l-1.7-5.1-1.5.1v5h-1.2V61.6zm1.2 4.7h1c1.7 0 2.2-.7 2.2-1.9s-.5-1.9-2.2-1.9h-1v3.8zm13.1-4.7l2.4 10.7h-1.2l-.6-3.2H34l-.6 3.2h-1.2l2.4-10.7h1.5zm-2 6.6h2.4l-1.2-5.8-1.2 5.8zm10.4-6.6v10.7h-1.2V61.6h1.2zm10.2 3.3c-.1-1.4-.5-2.5-1.7-2.5-1.3 0-1.9 1.2-1.9 4.5s.6 4.5 1.9 4.5c1.1 0 1.7-.6 1.7-1.7v-1.5h-1.5v-1h2.6v5h-.7l-.1-.7c-.4.6-1.1 1-1.9 1-1.9 0-3.1-1.5-3.1-5.5 0-4.1 1.2-5.5 3.1-5.5 2 0 2.7 1.7 2.8 3.4h-1.2zm7.4.7c.7 0 1.2.5 1.2 1.2s-.5 1.2-1.2 1.2-1.2-.5-1.2-1.2.5-1.2 1.2-1.2zm5.5-4v4.6h3.1v-4.6h1.2v10.7h-1.2v-5.1h-3.1v5.1h-1.2V61.6h1.2zM12.4 76.4l2.8 7.9v-7.9h1.2v10.7h-1.2l-3.3-9.3v9.3h-1.2V76.4h1.7zm13.8 0v1h-3.7V81h2.8v1h-2.8v4.1h3.9v1h-5.1V76.4h4.9zm6.1 0v10.7h-1.2V76.4h1.2zm6.4 0v9.7h3.5v1h-4.6V76.4h1.1zm11.7 2.8c-.1-1.1-.5-1.9-1.6-1.9-.9 0-1.5.6-1.5 1.4 0 2.4 4.3 2.5 4.3 5.9 0 1.7-1 2.7-2.7 2.7-1.7 0-2.7-1.2-2.7-3h1.1c0 1.3.6 2 1.8 2 1 0 1.6-.6 1.6-1.8 0-2.4-4.3-2.7-4.3-5.8 0-1.5 1-2.5 2.6-2.5s2.6 1 2.6 2.9h-1.2zm10.8-2.8v1h-3.7V81h2.8v1h-2.8v4.1h3.9v1h-5.1V76.4h4.9zm6.6 0l2.8 7.9v-7.9h1.2v10.7h-1.2l-3.3-9.3v9.3H66V76.4h1.8zM10.7 91.2h4.6v1h-3.4v3.7h2.6v1h-2.6v5.1h-1.2V91.2zm8.2 10.9c-1.8 0-3-1.5-3-5.5s1.2-5.5 3-5.5 3 1.5 3 5.5c0 3.9-1.2 5.5-3 5.5zm0-10.1c-1 0-1.9.9-1.9 4.5s.8 4.5 1.9 4.5c1 0 1.9-.9 1.9-4.5S20 92 18.9 92zm5.6-.8v7.9c0 1.1.3 2 1.6 2s1.6-.9 1.6-2v-7.9h1.2v7.9c0 1.7-.8 3-2.7 3-1.9 0-2.7-1.2-2.7-3v-7.9h1zm7.6 0l2.8 7.9v-7.9H36v10.7h-1.2l-3.3-9.3v9.3h-1.2V91.2h1.8zm5.5 0h2c2.3 0 3.6 1.2 3.6 5.4 0 4.1-1.4 5.4-3.6 5.4h-2V91.2zm1.1 9.7h.6c1.7 0 2.7-.7 2.7-4.4s-1-4.4-2.7-4.4h-.6v8.8zm9.1-9.7l2.4 10.7H49l-.6-3.2h-2.7l-.6 3.2h-1.2l2.4-10.7h1.5zm-2 6.5h2.4L47 92l-1.2 5.7zm9.3-6.5v1h-2.2v9.7h-1.2v-9.7h-2.2v-1h5.6zm2.1 0v10.7H56V91.2h1.2zm4.4 10.9c-1.8 0-3-1.5-3-5.5s1.2-5.5 3-5.5 3 1.5 3 5.5c.1 3.9-1.2 5.5-3 5.5zm0-10.1c-1 0-1.9.9-1.9 4.5s.8 4.5 1.9 4.5 1.9-.9 1.9-4.5-.8-4.5-1.9-4.5zm6.1-.8l2.8 7.9v-7.9h1.2v10.7h-1.2l-3.3-9.3v9.3H66V91.2h1.7z"/></svg>