<svg id="Layer_1" xmlns="http://www.w3.org/2000/svg" viewBox="0 0 90 29.6"><style>.st0{fill:#fff}</style><path class="st0" d="M9.3 4.9c-.1 0-.2 0-.3.1L.6 7.9c-.3.1-.5.3-.6.6 0 .3 0 .6.1 1s.3.7.6.9c.2.1.3.2.5.2h.3l2.7-.9 3.7 10.7c.1.3.3.5.7.5h.3c.3 0 .5 0 .8-.2.4-.1.7-.3 1-.6.2-.3.3-.6.2-.9L7.2 8.5l2.7-.9c.3-.1.5-.3.5-.6.1-.3 0-.7-.1-1-.1-.4-.3-.6-.6-.8 0-.2-.2-.3-.4-.3M26 1.3c-.2 0-.3 0-.5.1-.4.1-.8.2-1.1.4-.3.2-.4.5-.4.8l.9 5-4 .7-.9-5c-.1-.3-.3-.5-.6-.6-.2-.1-.4-.1-.6-.1s-.3 0-.5.1c-.4.1-.8.2-1.1.4-.3.2-.4.5-.3.8l2.3 12.9c.1.3.3.5.6.6.2.1.4.1.7.1h.5c.4-.1.8-.2 1.1-.5.3-.2.4-.5.3-.8l-1-5.5 4-.7 1 5.5c.1.3.3.5.6.6.2.1.4.1.7.1h.5c.4-.1.8-.2 1.1-.5.3-.2.4-.5.3-.8L27.2 2c-.1-.3-.3-.5-.6-.6-.2-.1-.4-.1-.6-.1M41.1 0h-.4l-4.3.1c-.3 0-.5.1-.7.3s-.3.4-.3.7l.5 13.1c0 .3.2.6.5.7.3.1.6.2 1 .2h.1c.4 0 .8-.1 1.1-.3s.5-.4.4-.7l-.2-5h1.4l3 5.4c.2.4.5.6 1 .6h.1c.5 0 .9-.2 1.4-.6.4-.4.6-.8.6-1.2l-.1-.3-2.7-4.5c1.6-.7 2.4-2.1 2.3-4.3 0-2.8-1.6-4.2-4.7-4.2m-2.2 6.7l-.1-3.8 2-.1h.1c.5 0 1 .1 1.3.4s.5.8.5 1.5-.1 1.2-.4 1.5-.8.5-1.4.5h-2zM55 .3c-.3 0-.6.1-.9.2-.3.1-.5.4-.5.7l-1 13.1c0 .3.1.6.4.8.3.2.7.3 1.1.3h.2c.3 0 .6-.1.9-.2.3-.1.5-.4.5-.7l1-13.1c0-.3-.1-.6-.4-.8-.3-.2-.7-.3-1.1-.3H55m10 1.1c-.3 0-.6.1-.9.2-.5.2-.8.4-.8.8v.2l1.4 13.1c0 .4.2.7.6.9.3.3.8.4 1.3.5.2 0 .5.1.7.1s.5 0 .7-.1c.4-.1.7-.3.9-.6L75 4.9v-.3c.1-.4-.1-.7-.5-1s-.8-.6-1.3-.6h-.4c-.4 0-.6.1-.8.4l-4.8 9.9-.8-11c0-.4-.3-.7-.9-.8-.1-.1-.3-.1-.5-.1m16.8 3.9h-.4c-.3.1-.5.3-.6.6l-4.3 12.4c-.1.3-.1.6.2.8.2.3.5.4.9.6l6.9 2.4c.1 0 .2.1.3.1.2 0 .4-.1.5-.2.2-.2.4-.5.6-.8.1-.4.2-.7.1-1s-.3-.5-.5-.6l-5.2-1.8 1.1-3.3 2.9 1c.1 0 .2.1.3.1.2 0 .3-.1.5-.2.2-.2.4-.4.5-.7s.1-.6 0-.9c-.1-.3-.3-.5-.6-.6l-2.9-1 1.1-3.3 5.2 1.8h.3c.2 0 .4-.1.5-.2.3-.2.4-.5.6-.9.2-.5.2-.8.2-1.1-.1-.3-.2-.5-.5-.6l-6.9-2.4c-.4-.1-.6-.2-.8-.2M27.6 23.4l-.3.1-.2.2-.1.2-.2.3-.1.2-.1.2c-.1.1-.1.2-.2.4l-.3.6c-.1.2-.2.5-.3.7l-.3.6c-.1.2-.1.3-.2.5l-.1.2c-.1.1-.1.3-.1.5v.5c0 .2.1.3.2.5l.2.4h.3l.1-.1.1-.2.1-.3v-.3l.1-.1.1-.1h.1v-.3l.1-.3.2-.2v-.3l.1-.3.1-.3.1-.2.1-.1.1.1c.3.5.7.8 1.2.8.2 0 .4 0 .6-.1l.6-.3c.2-.1.4-.2.6-.4.2-.1.4-.3.6-.4V26h.2v.2c-.2.7-.3 1.3-.3 1.7 0 .5.1.8.4 1h.2l.2-.1.1-.1.2-.1v-.2c.1-.3.3-.6.4-.9s.2-.7.1-1.1l.1-.2.1-.2v-.7l.1-.3v-.5h.2v-.2l-.1-.2v-.2l-.2-.3-.1-.1v.5h-.1l-.1-.2-.2-.1h-.2l-.2.1c-.1.3-.2.5-.4.7-.2.2-.4.3-.6.5h-.4l-.3.3-.1.1-.2.1-.2.1-.3.1-.2-.1-.1-.1v-1.1l-.3-.4-.1-.1-.1-.1h-.4l-.1-.1v-.1l-.2-.2zm9.4.1l-.1.1c-.1.2-.3.4-.4.5l-.5.4h-.4l-.1.1-.2.3-.2.3-.1.3-.2.3v.2l-.1.3-.1.3c-.2.3-.3.6-.4.9-.1.3-.3.6-.4.9v.2l-.1.1.1.1v.4l.1.1.2.1h.4v-.1l.1-.1.1-.1.3-.1v-.3l.1-.2.1-.2v-.2l.1-.1v-.1h.1v-.2l.1-.1.1.2v.2l.1.1v.1h.8l.5-.2.3-.1h.3l-.1.4-.3.2-.3.1.2.2.1.1.1.1.1.1v.2h.1l.1.1.1.1.2.1.4-.1.3-.2.3-.3.2-.4v-.4l-.1-.3v-.2l.4-.3.3-.3.1-.2-.1-.1-.1-.1-.2-.1h-.1v-.1h-.4l-.5-.5-.1-.4-.1-.3-.1-.3v-.4l-.1-.3v-.4l-.2-.1-.3-.1-.2-.1h-.1l-.2-.1zm-1.1 3.4l.2-.3.3-.5.4-.5v-.1c.1.2.1.4.2.6.1.2.1.4.1.6-.2 0-.4.1-.5.1H36l-.1.1zm7.7-3.5c-.2 0-.4.1-.6.2l-.4.5c-.1.2-.3.3-.4.5-.1.2-.3.3-.4.5l-.2-.1h-.2l-.2.5-.1.5c0 .2-.1.3-.1.5s-.1.3-.2.5v.3h-.1v.3l-.1.3-.1.3v.3h-.1l.1.1.1.1v.4l.1.1v.1h.4l.1-.1h.2l.2-.4c.1-.1.1-.3.1-.5l.3.3.3.2.7.2c.1.1.3.1.6.2.5.2.8.3 1.1.4h.4c.1 0 .2 0 .3-.1l.1-.1.1-.1.1-.1.1-.1h-.1l.1-.2v-.2l-.1-.2-.1-.2h-.5l-.3-.1-.4-.1-.5-.1-.3-.1-.2-.1-.4-.2c.2-.1.4-.2.7-.2.3-.1.5-.2.7-.3.2-.1.4-.2.6-.4.2-.2.3-.4.3-.7v-.4l-.1-.3-.2-.4-.1-.3-.2-.2v-.1l-.1-.1-.1-.1-.4-.4-.5-.3zm-1.1 2.8l.1-.4.2-.3.2-.3.2-.3.3.2c.1.1.2.3.2.5-.2.1-.4.2-.7.3 0 .2-.2.3-.5.3m6.2-2.7l-.3.2-.1.3-.1.3-.2.2c-.1.3-.1.6-.2.8-.1.3-.2.5-.3.8-.1.2-.2.5-.3.8s-.1.6-.2.9h-.1v.4l-.1.1.2.1v.2l.1.2.1.2v.2l.1.1.1.1.1.1h.2c.2-.1.4-.2.5-.4.1-.2.3-.3.4-.5.1-.2.2-.4.4-.5.1-.2.3-.3.5-.4h.2l.3.3.3.3.3.2.2.1h.2v.1c.2.1.4.1.7.2h.9c.2-.1.4-.2.5-.4.1-.2.2-.4.2-.6l-.2-.1-.1-.1-.2-.1-.2-.1h-.7c-.2 0-.4 0-.6-.1-.2 0-.4-.1-.5-.2-.2-.1-.3-.3-.4-.5l.1-.1.1-.1h.2l.1-.1.1-.1.1-.1.1-.1.4-.3.4-.2.4-.3.4-.3.1-.2.1-.1-.1-.2-.1-.1-.1-.1-.1-.2-.3-.1-.2-.2-.2.1-.3.1v.2h-.2l-.3.2-.3.2-.3.2-.3.2c-.2.1-.3.3-.5.4s-.4.3-.5.4v-.2l.1-.2.1-.2.2-.2v-.2l.2-.2v-.3l-.2-.3-.2-.2h-.1l-.1-.1-.1-.1h-.3l-.1-.1zm10.3 0l-.2-.1h-.1c-.3 0-.5.1-.7.1s-.4.1-.6.1c-.2 0-.4.1-.6.1-.2 0-.4.1-.7.2l-.4.1-.4.1-.3.2-.2.2.1.3v.3l.1.3.2.3-.2.4-.1.3-.1.3-.2.3h-.1l-.1.1v.1l-.1.1-.1.1-.1.1v.6l.1.3v.3l.1.1.1.2c.1.1.3.2.5.3.2 0 .4.1.6.1h.6c.2 0 .4-.1.5-.1h.2c.2 0 .5-.1.6-.1.2 0 .4-.1.5-.1l.4-.3c.1-.1.2-.3.3-.5h-.1V28h-.1l-.1-.1-.1-.1-.1-.1-.5.1-.5.1h-1.9l.2-.5.3-.4h1.6l.4-.1.3-.2.3-.2v-.2l-.1-.2H58l.3-.1-.1-.1-.2-.1v-.2c-.3 0-.5 0-.8.1h-.7v-.4h.2l.1-.1h.5l.4-.2.4-.1.4-.1.4-.1.3-.2.3-.3v-.4l-.3-.2-.2-.1zm6.7-.1h-.6c-.2 0-.4.1-.6.1l-.5.1h-.4l-.1-.1h-.4v.1l-.1.1c-.3 0-.5 0-.8.1-.2 0-.4 0-.7.1h-.9v.6l.1.2v.3h.1l.1.1.1.1.2.1h1.5v.1l-.1.1-.1.2v.2l-.1.1-.1.1-.1.4-.2.2c-.1.2-.2.5-.3.7-.1.3-.1.6-.1.9l.1.1v.2l.1.2.1.2v.1h.1l.1.1.1.1.1.1.1.1h.1c.2 0 .4-.1.5-.2s.1-.3.1-.4l-.1-.1-.1-.1v-.9l.1-.2v-.1l.1-.1v-.1l.1-.3.2-.3.1-.3.2-.3.1-.4.1-.3.1-.3.1-.4h.7c.2 0 .4-.1.5-.1h1.3l.1-.1.1-.1v-.1c0-.2 0-.3-.1-.4l-.2-.2-.1-.1-.1-.1-.1-.1h-.5zm-44.1 2.4c-.3 0-.6.1-1 .1h-4.3c-.3 0-.6.1-.9.1v.2l-.1.2-.1.2v.2c.2.1.5.1.8.2.3 0 .7.1 1 .1.4 0 .7 0 1.1.1h2.3c.3 0 .6 0 .9-.1l.3-1.3zm53.2 0c-.3 0-.6.1-1 .1h-4.3c-.3 0-.6.1-.9.1v.2l-.1.2-.1.2v.2c.2.1.5.1.8.2.3 0 .7.1 1 .1s.7 0 1.1.1h2.3c.3 0 .6 0 .9-.1l.3-1.3z"/></svg>