<?xml version="1.0" encoding="utf-8"?>
<!-- Generator: Adobe Illustrator 21.0.2, SVG Export Plug-In . SVG Version: 6.00 Build 0)  -->
<svg version="1.1" id="chnf" xmlns="http://www.w3.org/2000/svg" xmlns:xlink="http://www.w3.org/1999/xlink" x="0px" y="0px"
	 viewBox="0 0 81.7 113" style="enable-background:new 0 0 81.7 113;" xml:space="preserve">
<style type="text/css">
	.st0{fill:#FFFFFF;}
</style>
<path class="st0" d="M82,113H0V0h82V113z M1,112h80V1H1V112z"/>
<polygon class="st0" points="71.7,58.1 13.5,15.4 13.5,54.6 9.9,54.6 9.9,8.4 68.1,51.1 68.1,11.9 71.7,11.9 "/>
<path class="st0" d="M15.1,64.8c-0.1-1.7-0.7-2.4-1.6-2.4c-1.4,0-1.9,1.2-1.9,4.5c0,3.3,0.6,4.5,1.9,4.5c1.1,0,1.7-0.7,1.7-2.7h1.2
	c0,2.4-1.1,3.7-2.9,3.7c-1.9,0-3.1-1.5-3.1-5.5c0-4.1,1.2-5.5,3.1-5.5c1.6,0,2.6,1.1,2.7,3.4H15.1z"/>
<path class="st0" d="M21.8,61.6h2.6c1.7,0,2.9,1,2.9,2.8c0,1.2-0.5,2.2-1.7,2.6l1.8,5.3h-1.2l-1.7-5.1L23,67.3v5h-1.2V61.6z
	 M23,66.3h1c1.7,0,2.2-0.7,2.2-1.9c0-1.2-0.5-1.9-2.2-1.9h-1V66.3z"/>
<path class="st0" d="M36.1,61.6l2.4,10.7h-1.2l-0.6-3.2h-2.7l-0.6,3.2h-1.2l2.4-10.7H36.1z M34.1,68.2h2.4l-1.2-5.8h0L34.1,68.2z"/>
<path class="st0" d="M44.5,61.6v10.7h-1.2V61.6H44.5z"/>
<path class="st0" d="M54.7,64.9c-0.1-1.4-0.5-2.5-1.7-2.5c-1.3,0-1.9,1.2-1.9,4.5s0.6,4.5,1.9,4.5c1.1,0,1.7-0.6,1.7-1.7v-1.5h-1.5
	v-1h2.6v5h-0.7L55,71.5c-0.4,0.6-1.1,1-1.9,1C51.2,72.5,50,71,50,67c0-4.1,1.2-5.5,3.1-5.5c2,0,2.7,1.7,2.8,3.4H54.7z"/>
<path class="st0" d="M62.1,65.6c0.7,0,1.2,0.5,1.2,1.2c0,0.7-0.5,1.2-1.2,1.2c-0.7,0-1.2-0.5-1.2-1.2C60.9,66.1,61.4,65.6,62.1,65.6
	z"/>
<path class="st0" d="M67.6,61.6v4.6h3.1v-4.6h1.2v10.7h-1.2v-5.1h-3.1v5.1h-1.2V61.6H67.6z"/>
<path class="st0" d="M12.4,76.4l2.8,7.9h0v-7.9h1.2v10.7h-1.2l-3.3-9.3h0v9.3h-1.2V76.4H12.4z"/>
<path class="st0" d="M26.2,76.4v1h-3.7V81h2.8v1h-2.8v4.1h3.9v1h-5.1V76.4H26.2z"/>
<path class="st0" d="M32.3,76.4v10.7h-1.2V76.4H32.3z"/>
<path class="st0" d="M38.7,76.4v9.7h3.5v1h-4.6V76.4H38.7z"/>
<path class="st0" d="M50.4,79.2c-0.1-1.1-0.5-1.9-1.6-1.9c-0.9,0-1.5,0.6-1.5,1.4c0,2.4,4.3,2.5,4.3,5.9c0,1.7-1,2.7-2.7,2.7
	c-1.7,0-2.7-1.2-2.7-3h1.1c0,1.3,0.6,2,1.8,2c1,0,1.6-0.6,1.6-1.8c0-2.4-4.3-2.7-4.3-5.8c0-1.5,1-2.5,2.6-2.5s2.6,1,2.6,2.9H50.4z"
	/>
<path class="st0" d="M61.2,76.4v1h-3.7V81h2.8v1h-2.8v4.1h3.9v1h-5.1V76.4H61.2z"/>
<path class="st0" d="M67.8,76.4l2.8,7.9h0v-7.9h1.2v10.7h-1.2l-3.3-9.3h0v9.3H66V76.4H67.8z"/>
<path class="st0" d="M10.7,91.2h4.6v1h-3.4v3.7h2.6v1h-2.6v5.1h-1.2V91.2z"/>
<path class="st0" d="M18.9,102.1c-1.8,0-3-1.5-3-5.5c0-4,1.2-5.5,3-5.5c1.8,0,3,1.5,3,5.5C21.9,100.5,20.7,102.1,18.9,102.1z
	 M18.9,92c-1,0-1.9,0.9-1.9,4.5c0,3.6,0.8,4.5,1.9,4.5c1,0,1.9-0.9,1.9-4.5C20.8,92.9,20,92,18.9,92z"/>
<path class="st0" d="M24.5,91.2v7.9c0,1.1,0.3,2,1.6,2c1.3,0,1.6-0.9,1.6-2v-7.9h1.2v7.9c0,1.7-0.8,3-2.7,3c-1.9,0-2.7-1.2-2.7-3
	v-7.9H24.5z"/>
<path class="st0" d="M32.1,91.2l2.8,7.9h0v-7.9H36v10.7h-1.2l-3.3-9.3h0v9.3h-1.2V91.2H32.1z"/>
<path class="st0" d="M37.6,91.2h2c2.3,0,3.6,1.2,3.6,5.4c0,4.1-1.4,5.4-3.6,5.4h-2V91.2z M38.7,100.9h0.6c1.7,0,2.7-0.7,2.7-4.4
	s-1-4.4-2.7-4.4h-0.6V100.9z"/>
<path class="st0" d="M47.8,91.2l2.4,10.7H49l-0.6-3.2h-2.7l-0.6,3.2h-1.2l2.4-10.7H47.8z M45.8,97.7h2.4L47,92h0L45.8,97.7z"/>
<path class="st0" d="M55.1,91.2v1h-2.2v9.7h-1.2v-9.7h-2.2v-1H55.1z"/>
<path class="st0" d="M57.2,91.2v10.7H56V91.2H57.2z"/>
<path class="st0" d="M61.6,102.1c-1.8,0-3-1.5-3-5.5c0-4,1.2-5.5,3-5.5s3,1.5,3,5.5C64.7,100.5,63.4,102.1,61.6,102.1z M61.6,92
	c-1,0-1.9,0.9-1.9,4.5c0,3.6,0.8,4.5,1.9,4.5s1.9-0.9,1.9-4.5C63.5,92.9,62.7,92,61.6,92z"/>
<path class="st0" d="M67.7,91.2l2.8,7.9h0v-7.9h1.2v10.7h-1.2l-3.3-9.3h0v9.3h-1.2V91.2H67.7z"/>
</svg>
