<?xml version="1.0" encoding="utf-8"?>
<!-- Generator: Adobe Illustrator 21.0.2, SVG Export Plug-In . SVG Version: 6.00 Build 0)  -->
<svg version="1.1" id="EPA" xmlns="http://www.w3.org/2000/svg" xmlns:xlink="http://www.w3.org/1999/xlink" x="0px" y="0px"
	 viewBox="0 0 91.6 30.2" style="enable-background:new 0 0 91.6 30.2;" xml:space="preserve">
<style type="text/css">
	.st0{fill:#FFFFFF;}
</style>
<path class="st0" d="M22.8,11.6c-1,4-4.6,7.2-8.7,7.2s-7.7-3.2-8.7-7.2l0,0c0,0,2,2.2,0,0c0.6,0.7,1.2,1,2.2,1s1.6-0.3,2.2-1
	c0.6,0.7,1.3,1,2.2,1s1.5-0.3,2.2-1c0.6,0.7,1.2,1,2.2,1s1.6-0.3,2.2-1c0.6,0.7,1.3,1,2.2,1C21.5,12.5,22.1,12.3,22.8,11.6"/>
<path class="st0" d="M22.8,9.4c0-5.2-3.9-9.4-8.7-9.4S5.3,4.2,5.3,9.4h7.9c-1-0.4-1.6-1.4-1.6-2.5c0-1.5,1.2-2.7,2.5-2.7
	c1.4,0,2.6,1.2,2.6,2.7c0,1.1-0.6,2.1-1.5,2.5H22.8"/>
<path class="st0" d="M14.6,30.2c0.1-8,6-14.9,13.5-15.2C28.1,23.1,22.1,29.8,14.6,30.2"/>
<path class="st0" d="M13.5,30.2c-0.1-8-6-14.9-13.5-15.2C0,23.1,6.1,29.8,13.5,30.2"/>
<polyline class="st0" points="48.4,0.7 30.7,0.7 30.7,29.6 48.4,29.6 48.4,25.1 36.2,25.1 36.2,17.3 48.4,17.3 48.4,12.8 36.2,12.8 
	36.2,5.1 48.4,5.1 48.4,0.7 "/>
<path class="st0" d="M55,12.8h5.5c1.8,0,3.1-1.9,3-3.8c0-1.9-1.2-3.8-3-3.8h-5.1v24.4h-5.6V0.7h12.6c4.1,0,7.1,3.9,7.1,8.2
	c0,4.4-3,8.4-7.1,8.4H55V12.8"/>
<polyline class="st0" points="63.7,29.6 69.7,29.6 72.3,22 83.2,22 81.6,17.2 73.9,17.2 77.7,6.2 85.6,29.6 91.6,29.6 80.9,0.7 
	74.1,0.7 63.7,29.6 "/>
</svg>
