<?xml version="1.0" encoding="utf-8"?>
<!-- Generator: Adobe Illustrator 21.0.2, SVG Export Plug-In . SVG Version: 6.00 Build 0)  -->
<svg version="1.1" id="Layer_1" xmlns="http://www.w3.org/2000/svg" xmlns:xlink="http://www.w3.org/1999/xlink" x="0px" y="0px"
	 viewBox="0 0 432 247" style="enable-background:new 0 0 432 247;" xml:space="preserve">
<style type="text/css">
	.st0{fill:#FFFFFF;}
</style>
<path class="st0" d="M74.9,109.6c0,44.7,25.2,55,46.9,55s46.7-10.3,46.7-55c0-43.4-25-54.8-46.7-54.8S74.9,66.2,74.9,109.6
	 M101.4,109.6c0-17.8,3.9-36.6,20.5-36.6c16.5,0,20.3,18.8,20.3,36.6c0,17.8-3.7,36.8-20.3,36.8
	C105.3,146.4,101.4,127.4,101.4,109.6 M44.5,206.7h18.2V0H44.5V206.7z M1.3,162.9H27V56.5H1.4L1.3,162.9L1.3,162.9z"/>
<path class="st0" d="M85.2,198.2c2.9-1.9,6.6-2.9,10.1-2.9c5.2,0,8.4,2.2,9.5,3.4c1.5,1.5,3.1,3.7,3.1,8.7V226
	c0,2.1,0.1,4.2,0.3,5.5h-5.3l-0.3-4.8h-0.1c-1.6,2.7-4.5,5.3-10,5.3c-5.9,0-10.3-3.4-10.3-10.3s4.5-12,16.8-12h3.4v-1.6
	c0-2.7-0.2-4.2-1.3-5.7c-1.2-1.6-3.5-2.2-5.9-2.2c-3.6,0-7.1,1.5-9.2,3.7L85.2,198.2z M102.2,214c-1.1-0.1-2.5-0.1-4.1-0.1
	c-6.9,0-10.2,3.3-10.2,7.4c0,3.8,2,6.2,6,6.2c5.1,0,8.3-4.1,8.3-9L102.2,214L102.2,214z"/>
<path class="st0" d="M131.9,231c-1.4,0.5-3.4,0.9-5,0.9c-5.4,0-8.3-2.2-8.3-8.5v-23H113v-4.8h5.7v-7.1l5.9-1.7v9h7.3v4.8h-7.3v21.1
	c0,4.1,1.1,5.6,3.7,5.6c1.5,0,2.5-0.4,3.6-0.9L131.9,231L131.9,231z"/>
<path class="st0" d="M154.8,182.6h11.8c4.9,0,8,1.3,10.6,3.8c2.4,2.4,3.8,5.8,3.8,10.1c0,9.5-5.5,14.6-15.9,14.6H161v20.4h-6.2
	V182.6z M161,206h3.4c7.5,0,10.2-3.5,10.2-9c0-6.7-3.8-9.4-10.1-9.4H161V206z"/>
<path class="st0" d="M187.9,179h5.9v52.5h-5.9V179z"/>
<path class="st0" d="M204.3,198.2c2.9-1.9,6.6-2.9,10.1-2.9c5.2,0,8.4,2.2,9.5,3.4c1.5,1.5,3.1,3.7,3.1,8.7V226
	c0,2.1,0.1,4.2,0.3,5.5H222l-0.3-4.8h-0.1c-1.6,2.7-4.5,5.3-10,5.3c-5.9,0-10.3-3.4-10.3-10.3s4.5-12,16.8-12h3.4v-1.6
	c0-2.7-0.2-4.2-1.3-5.7c-1.2-1.6-3.5-2.2-5.9-2.2c-3.6,0-7.1,1.5-9.2,3.7L204.3,198.2z M221.4,214c-1.1-0.1-2.5-0.1-4.1-0.1
	c-6.9,0-10.2,3.3-10.2,7.4c0,3.8,2,6.2,6,6.2c5.1,0,8.3-4.1,8.3-9L221.4,214L221.4,214z"/>
<path class="st0" d="M246.5,238.7c-1.7,6.1-4.3,8.3-8.7,8.3c-1.4,0-2.9-0.1-4-0.4l0.3-5.3c0.9,0.4,2,0.7,3.2,0.7
	c1.7,0,2.9-0.8,3.9-4.5l1.4-5.5l-11.3-36.3h6.2l8,29.1h0.1l7.4-29.1h5.9L246.5,238.7z"/>
<path class="st0" d="M265.2,198.2c2.9-1.9,6.6-2.9,10.1-2.9c5.2,0,8.4,2.2,9.5,3.4c1.5,1.5,3.1,3.7,3.1,8.7V226
	c0,2.1,0.1,4.2,0.3,5.5h-5.3l-0.3-4.8h-0.1c-1.6,2.7-4.5,5.3-10,5.3c-5.9,0-10.3-3.4-10.3-10.3s4.5-12,16.8-12h3.4v-1.6
	c0-2.7-0.2-4.2-1.3-5.7c-1.2-1.6-3.5-2.2-5.9-2.2c-3.6,0-7.1,1.5-9.2,3.7L265.2,198.2z M282.3,214c-1.1-0.1-2.5-0.1-4.1-0.1
	c-6.9,0-10.2,3.3-10.2,7.4c0,3.8,2,6.2,6,6.2c5.1,0,8.3-4.1,8.3-9L282.3,214L282.3,214z"/>
<path class="st0" d="M305.6,182.6h6.7l11.3,39.8h0.1l12-39.8h6.2l-15.3,48.9h-6.2L305.6,182.6z"/>
<path class="st0" d="M352.2,181.1v7h-6.4v-7H352.2z M346,195.8h5.9v35.7H346V195.8z"/>
<path class="st0" d="M359.5,224.5c2.7,1.6,5.5,2.7,8.4,2.7c4.5,0,6.8-2.3,6.8-5c0-2.4-1.3-4.1-4.5-5.6l-3.9-1.8
	c-5.1-2.3-7-4.6-7-9.2c0-5.9,4.5-10.4,11.5-10.4c2.9,0,5.5,0.5,7.6,1.3l-0.3,5c-1.8-0.8-4.3-1.5-7-1.5c-3.8,0-5.9,2.1-5.9,4.9
	c0,2.9,2.1,4.5,6,6l2.1,0.8c4.3,1.7,7.1,4.7,7.1,9.1c0,6.2-3.3,11.1-11.5,11.1c-3.7,0-7.1-0.8-9.7-2.1L359.5,224.5z"/>
<path class="st0" d="M402.7,231c-1.4,0.5-3.4,0.9-5,0.9c-5.4,0-8.3-2.2-8.3-8.5v-23h-5.7v-4.8h5.7v-7.1l5.9-1.7v9h7.4v4.8h-7.4v21.1
	c0,4.1,1.1,5.6,3.7,5.6c1.5,0,2.5-0.4,3.6-0.9L402.7,231L402.7,231z"/>
<path class="st0" d="M409,198.2c2.9-1.9,6.6-2.9,10.1-2.9c5.2,0,8.4,2.2,9.5,3.4c1.5,1.5,3.1,3.7,3.1,8.7V226c0,2.1,0.1,4.2,0.3,5.5
	h-5.3l-0.3-4.8h-0.1c-1.6,2.7-4.5,5.3-10,5.3c-5.9,0-10.3-3.4-10.3-10.3s4.5-12,16.8-12h3.4v-1.6c0-2.7-0.2-4.2-1.3-5.7
	c-1.2-1.6-3.5-2.2-6-2.2c-3.6,0-7.1,1.5-9.2,3.7L409,198.2z M426.1,214c-1.1-0.1-2.5-0.1-4.1-0.1c-6.9,0-10.2,3.3-10.2,7.4
	c0,3.8,2,6.2,6,6.2c5.1,0,8.3-4.1,8.3-9V214z"/>
<path class="st0" d="M14.5,45.7c8,0,14.5-6.5,14.5-14.5s-6.5-14.5-14.5-14.5S0,23.2,0,31.2S6.5,45.7,14.5,45.7"/>
</svg>
