<?xml version="1.0" encoding="utf-8"?>
<!-- Generator: Adobe Illustrator 21.0.2, SVG Export Plug-In . SVG Version: 6.00 Build 0)  -->
<svg version="1.1"
	 id="planned-parenthood" xmlns:cc="http://creativecommons.org/ns#" xmlns:dc="http://purl.org/dc/elements/1.1/" xmlns:rdf="http://www.w3.org/1999/02/22-rdf-syntax-ns#" xmlns:svg="http://www.w3.org/2000/svg"
	 xmlns="http://www.w3.org/2000/svg" xmlns:xlink="http://www.w3.org/1999/xlink" x="0px" y="0px" viewBox="0 0 200.4 62.7"
	 style="enable-background:new 0 0 200.4 62.7;" xml:space="preserve">
<style type="text/css">
	.st0{fill:#FFFFFF;}
</style>
<path id="path18" class="st0" d="M47.5,20.1v23.3c0,8-6.5,14.3-14.5,14.3H18.4l2.8-6.4h11.9c4.4,0,8.1-3.5,8.1-8V26.4H24.8
	c-4.4,0-8,3.6-8,8v28.2h-6.5V34.4c0-7.9,6.5-14.5,14.5-14.5h9.8v-13H22.4c-8.8,0-16,7.2-16,16v39.8H0V22.9C0,10.6,9.9,0.6,22.3,0.6
	H41V20h6.5"/>
<path id="path22" class="st0" d="M60.5,57c-0.2-1.4-1.1-2-2.2-2c-1.9,0-2.5,1.9-2.5,3.2c0,1.2,0.5,3.1,2.5,3.1c1.1,0,2-0.5,2.2-2
	h2.2c-0.3,2.7-2.1,3.8-4.6,3.8c-2.8,0-4.6-1.5-4.6-4.9c0-3.5,1.8-4.9,4.7-4.9c1.9,0,4.3,0.6,4.6,3.8L60.5,57"/>
<path id="path26" class="st0" d="M68.7,59.3c-0.4,0.2-0.8,0.3-1.1,0.3l-1.1,0.2c-0.7,0-1,0.2-1,0.8c0,0.7,0.4,1,1.2,1
	c1,0,2.1-0.6,2.1-1.8v-0.5H68.7z M63.7,57.9c0.3-2.2,1.9-2.5,3.5-2.5c2.7,0,3.4,1.1,3.4,2.3v3.5c0,0.6,0,1,0.1,1.4h-2
	c0-0.2-0.1-0.5-0.1-0.8c-0.7,0.9-1.9,1.1-2.8,1.1c-1.5,0-2.6-0.7-2.6-2.2c0-1.7,1.4-2,2.5-2.2l2-0.1c0.6,0,0.8-0.2,0.8-0.8
	c0-0.5-0.4-0.8-1.6-0.8c-0.8,0-1.2,0-1.5,1L63.7,57.9"/>
<path id="path30" class="st0" d="M71.7,55.7h1.9v1.4c0.7-1.1,1.2-1.7,2.3-1.7c0.2,0,0.5,0,0.7,0.2v2.1c-0.4-0.1-0.7-0.2-1-0.2
	c-1.3,0-2,0.8-2,2.1v3.1h-1.9L71.7,55.7"/>
<path id="path34" class="st0" d="M82.8,58.5c0-0.4-0.5-1.6-1.9-1.6c-1.5,0-1.7,1.4-1.7,1.6H82.8z M84.7,60.7c-0.6,1.7-2,2.3-3.7,2.3
	c-2.4,0-3.9-1.1-3.9-3.8s1.5-3.8,3.9-3.8c2.5,0,3.8,1.5,3.8,4.1v0.3h-5.6c0,0.7,0.5,1.7,1.9,1.7c0.8,0,1.3-0.4,1.6-0.9h2"/>
<path id="path36" class="st0" d="M85.9,60.6h2.2v2.2h-2.2V60.6z"/>
<path id="path40" class="st0" d="M93.8,55.3v7.3h-1.1v-9.3h1.4l4.9,7.4v-7.4h1.1v9.3h-1.3L93.8,55.3"/>
<path id="path44" class="st0" d="M104.5,56.8c-1.5,0-2.1,1.3-2.1,2.5c0,1.3,0.6,2.5,2.1,2.5c1.6,0,2.1-1.3,2.1-2.5
	S106,56.8,104.5,56.8z M104.5,55.7c2.2,0,3.2,1.6,3.2,3.6s-1,3.7-3.2,3.7c-2.2,0-3.3-1.7-3.3-3.7S102.3,55.7,104.5,55.7"/>
<path id="path48" class="st0" d="M120.2,58.3c0-1.2-0.7-1.6-1.4-1.6c-1,0-1.9,0.5-1.9,1.7v4.2h-1v-4.3c0-1.2-0.7-1.6-1.4-1.6
	c-1,0-1.9,0.6-1.9,2v4h-1.1v-6.8h1.1v1h0.1c0.5-1,1.4-1.3,2.2-1.3c0.8,0,1.5,0.4,1.9,1.3c0.4-0.8,1.2-1.3,2.2-1.3
	c0.6,0,2.2,0.4,2.2,2.4v4.7h-1.1L120.2,58.3"/>
<path id="path52" class="st0" d="M126.8,59.1c-0.2,0.3-0.4,0.4-1,0.5l-1.2,0.2c-0.8,0.1-1.3,0.4-1.3,1c0,0.7,0.6,1.1,1.3,1.1
	c1.2,0,2.2-0.8,2.2-1.9V59.1z M122.4,58c0.1-1.7,1.1-2.3,2.8-2.3c1.1,0,2.6,0.4,2.6,2v3.7c0,0.4,0.1,0.5,0.4,0.5c0.1,0,0.3,0,0.4,0
	v0.9c-0.3,0.1-0.6,0.1-0.8,0.1c-0.6,0-0.9-0.2-1-1c-0.4,0.7-1.5,1.1-2.4,1.1c-1.9,0-2.3-1.2-2.3-2c0-1.3,0.6-1.9,2.5-2.2l1.2-0.1
	c0.6-0.1,1-0.3,1-0.9c0-0.9-0.8-1.1-1.6-1.1c-1,0-1.8,0.3-1.8,1.3H122.4"/>
<path id="path56" class="st0" d="M129.5,53.8h1.1v2.1h1.6v1h-1.6v4.2c0,0.6,0.3,0.8,0.8,0.8c0.3,0,0.5,0,0.8-0.1v1.1
	c-0.4,0.1-0.8,0.1-1.2,0.1c-1.1,0-1.5-0.7-1.5-1.6v-4.5h-1.1v-1h1.1V53.8"/>
<path id="path60" class="st0" d="M133.6,53.8h1v2.1h1.7v1h-1.8v4.2c0,0.6,0.4,0.8,1,0.8c0.2,0,0.5,0,0.8-0.1v1.1
	c-0.4,0.1-0.8,0.1-1.2,0.1c-1,0-1.5-0.7-1.5-1.6v-4.5h-1.3v-1h1.3V53.8"/>
<path id="path64" class="st0" d="M141.8,58.7c-0.2-1.3-0.9-1.9-2-1.9c-1.1,0-1.9,0.6-2.1,1.9H141.8z M137.8,59.7
	c0,1.4,1.1,2.2,2.1,2.2c0.5,0,1.4-0.3,1.8-1.2h1.1c-0.5,1.7-1.8,2.3-2.9,2.3c-2.2,0-3.3-1.7-3.3-3.7s1.1-3.6,3.3-3.6
	c1.5,0,3.1,1,3.1,3.8v0.2H137.8"/>
<path id="path68" class="st0" d="M143.8,55.9h1.1v1.3c0.5-1.1,1.3-1.5,2-1.5c0.1,0,0.4,0,0.5,0.1v1.4c-0.3-0.2-0.5-0.2-0.8-0.2
	c-1,0-1.8,0.8-1.8,2.2v3.5h-1.1L143.8,55.9"/>
<path id="path72" class="st0" d="M158.7,55.9h1.1l-2.2,6.8h-1.1l-1.4-5.2l-1.4,5.2h-1.2l-2.2-6.8h1.2l1.5,5.2h0.1l1.4-5.2h1.1
	l1.5,5.2L158.7,55.9"/>
<path id="path76" class="st0" d="M160.6,53.4h1v3.5h0.1c0.5-1,1.4-1.3,2.2-1.3c1.4,0,2.3,0.8,2.3,2.4v4.6h-1v-4.3
	c0-1-0.6-1.6-1.7-1.6c-1,0-1.9,0.6-1.9,2v4h-1.1v-9.3"/>
<path id="path80" class="st0" d="M171.8,59.1c-0.1,0.3-0.4,0.4-1,0.5l-1.3,0.2c-0.8,0.1-1.3,0.4-1.3,1c0,0.7,0.5,1.1,1.3,1.1
	c1.3,0,2.2-0.8,2.2-1.9v-0.9H171.8z M167.5,58c0.2-1.7,1.1-2.3,2.8-2.3c1.1,0,2.6,0.4,2.6,2v3.7c0,0.4,0.1,0.5,0.5,0.5
	c0.1,0,0.3,0,0.4,0v0.9c-0.2,0.1-0.5,0.1-0.8,0.1c-0.5,0-0.9-0.2-0.9-1c-0.5,0.7-1.5,1.1-2.5,1.1c-1.9,0-2.2-1.2-2.2-2
	c0-1.3,0.6-1.9,2.3-2.2l1.3-0.1c0.6-0.1,1-0.3,1-0.9c0-0.9-0.8-1.1-1.6-1.1c-0.9,0-1.8,0.3-1.8,1.3H167.5"/>
<path id="path84" class="st0" d="M174.6,53.8h1.1v2.1h1.6v1h-1.6v4.2c0,0.6,0.2,0.8,0.8,0.8c0.3,0,0.5,0,0.8-0.1v1.1
	c-0.4,0.1-0.8,0.1-1.2,0.1c-1.1,0-1.5-0.7-1.5-1.6v-4.5h-1.1v-1h1.1V53.8"/>
<path id="path86" class="st0" d="M178.4,61.2h1.3v1.6h-1.3V61.2z"/>
<path id="path90" class="st0" d="M57.5,10.5V3.7H63c1.5,0,2.2,1.1,2.2,3.5c0,2.2-0.9,3.3-2.4,3.3H57.5z M57.5,20v-6.4H64
	c3.7,0,5.4-3,5.4-6.4c0-3.8-1.3-6.7-5.5-6.7H53.8v19.4h3.7"/>
<path id="path102" class="st0" d="M74.6,0h-3.5v16.2c0,2.1,0.6,3.5,1.5,4.6l3.1-1.3c-0.9-1-1.1-2.1-1.1-3.4V0"/>
<path id="path106" class="st0" d="M86.2,17.3c-0.8,0.3-1.8,0.5-2.9,0.5c-2.1,0-2.6-0.2-2.6-2.1s0.8-2.1,2.6-2.1
	c1.1,0,2.1,0.1,2.9,0.2V17.3z M89.6,10.9c0-4.2-2-5.5-6.2-5.5c-1.9,0-4.1,0.4-5.6,0.8l0.7,2.9c1.1-0.5,2.7-0.8,4.3-0.8
	c2.9,0,3.5,0.7,3.5,3.1c-1.1-0.2-2.2-0.4-3.5-0.4c-3.3,0-5.6,0.7-5.6,4.7c0,3.8,1.5,4.8,6,4.8c2.1,0,4.7-0.5,6.5-1.1L89.6,10.9"/>
<path id="path110" class="st0" d="M95.2,9c0.8-0.2,1.6-0.3,2.6-0.3c2.4,0,3,0.8,3,3.9v7.5h3.4v-7.9c0-5.2-1.8-6.8-5.7-6.8
	c-2.4,0-5.1,0.6-6.8,1.4v13.3h3.5V9"/>
<path id="path114" class="st0" d="M109.8,9c0.8-0.2,1.6-0.3,2.6-0.3c2.4,0,3,0.8,3,3.9v7.5h3.4v-7.9c0-5.2-1.8-6.8-5.7-6.8
	c-2.2,0-5.1,0.6-6.8,1.4v13.3h3.5L109.8,9"/>
<path id="path118" class="st0" d="M124.4,11.3c0.3-2.3,1.1-3,3.2-3c1.9,0,2.7,0.5,2.8,3H124.4z M132.2,17c-1.1,0.4-3,0.6-4.1,0.6
	c-2.4,0-3.7-0.6-3.7-3.7h9.2c0.3-6.9-1.7-8.5-6.2-8.5c-4.1,0-6.7,1.8-6.7,7.5c0,5.8,2.9,7.6,7,7.6c1.4,0,3.6-0.4,4.9-0.9L132.2,17"
	/>
<path id="path130" class="st0" d="M144.8,17.2c-0.8,0.2-1.8,0.4-2.7,0.4c-2.5,0-3.3-0.8-3.3-4.6c0-3.5,0.8-4.5,3.2-4.5
	c1.7,0,2.8,0.5,2.8,1.3V17.2z M148.3,0.1h-3.5v6.2c-0.8-0.4-1.8-0.8-3.4-0.8c-3.8,0-6.2,1.8-6.2,7.6s2.2,7.5,6.9,7.5
	c2,0,4.7-0.5,6.2-1V0.1"/>
<path id="path134" class="st0" d="M57.5,36.4v-6.8H63c1.5,0,2.2,1.1,2.2,3.4c0,2.2-0.9,3.4-2.4,3.4L57.5,36.4L57.5,36.4z M57.5,46
	v-6.4H64c3.7,0,5.4-3.2,5.4-6.4c0-3.9-1.3-6.8-5.5-6.8H53.8v19.5h3.7"/>
<path id="path138" class="st0" d="M79.6,43.2c-0.8,0.3-1.9,0.5-2.8,0.5c-2.2,0-2.6-0.3-2.6-2.2c0-1.8,0.6-2.1,2.6-2.1
	c1,0,2,0.1,2.8,0.3V43.2z M83,36.8c0-4.2-1.9-5.5-6.1-5.5c-2.1,0-4.3,0.4-5.6,0.8l0.5,2.8c1.2-0.4,2.9-0.7,4.4-0.7
	c3,0,3.5,0.6,3.5,3.2c-1.2-0.3-2.3-0.4-3.5-0.4c-3.4,0-5.6,0.6-5.6,4.6c0,3.7,1.5,4.7,6,4.7c2,0,4.6-0.4,6.5-1.1L83,36.8"/>
<path id="path142" class="st0" d="M85.1,46h3.4v-9.9c0-1,1.6-1.6,3.3-1.6c0.7,0,1.3,0.1,1.9,0.2v-3.3c-0.6-0.1-1.1-0.1-1.5-0.1
	c-2.1,0-3.1,0.6-3.7,1.5v-1.1h-3.4V46"/>
<path id="path146" class="st0" d="M97.8,37.1c0.3-2.3,1.1-3.1,3.2-3.1c1.9,0,2.7,0.5,2.8,3.1H97.8z M105.6,42.8
	c-1.1,0.3-3,0.6-4,0.6c-2.5,0-3.7-0.7-3.7-3.7h9.2c0.2-6.9-1.7-8.4-6.2-8.4c-4.1,0-6.7,1.7-6.7,7.3c0,5.9,2.8,7.7,7,7.7
	c1.4,0,3.5-0.3,4.9-0.8L105.6,42.8"/>
<path id="path150" class="st0" d="M112.3,34.9c0.8-0.3,1.6-0.4,2.6-0.4c2.5,0,3.1,0.8,3.1,3.9v7.7h3.5v-8c0-5-1.8-6.6-5.8-6.6
	c-2.2,0-5,0.5-6.8,1.2v13.4h3.5L112.3,34.9"/>
<path id="path154" class="st0" d="M133.1,34.9v-3.1h-4.6V28l-3.5,1.3v2.4h-2.4v3.1h2.4v6.4c0,4.2,1.6,5.2,4.7,5.2
	c1.4,0,2.9-0.3,3.9-0.7L133,43c-0.8,0.2-1.5,0.4-2.4,0.4c-1.7,0-2.2-0.7-2.2-2.5v-6.1L133.1,34.9"/>
<path id="path158" class="st0" d="M147.3,37.9c0-5.3-1.8-6.5-5.2-6.5c-1.4,0-3,0.5-4,0.9v-6.5h-3.4V46h3.4V35.7
	c0-0.8,1.3-1.3,2.8-1.3c2.2,0,2.8,1.3,2.8,3.7V46h3.5L147.3,37.9"/>
<path id="path162" class="st0" d="M152.6,38.8c0-4,0.7-4.7,3.1-4.7c2.5,0,3.3,0.7,3.3,4.7c0,3.9-0.7,4.6-3.3,4.6
	C153.3,43.5,152.6,42.7,152.6,38.8z M149,38.7c0,5.9,2.2,7.7,6.8,7.7c4.6,0,6.8-1.7,6.8-7.7c0-5.7-2.3-7.3-6.8-7.3
	C151.2,31.3,149,33,149,38.7"/>
<path id="path166" class="st0" d="M167.7,38.8c0-4,0.8-4.7,3.2-4.7s3.1,0.7,3.1,4.7c0,3.9-0.8,4.6-3.1,4.6
	C168.4,43.5,167.7,42.7,167.7,38.8z M164.2,38.7c0,5.9,2.2,7.7,6.8,7.7c4.5,0,6.8-1.7,6.8-7.7c0-5.7-2.3-7.3-6.8-7.3
	S164.2,33,164.2,38.7"/>
<path id="path170" class="st0" d="M188.8,43c-0.8,0.2-1.8,0.5-2.8,0.5c-2.4,0-3.2-0.8-3.2-4.7c0-3.5,0.8-4.5,3.2-4.5
	c1.7,0,2.9,0.6,2.9,1.4V43H188.8z M192.3,25.8h-3.5v6.4c-0.8-0.5-1.8-0.8-3.4-0.8c-3.8,0-6.2,1.7-6.2,7.5s2.1,7.5,6.8,7.5
	c2.1,0,4.7-0.4,6.3-1V25.8"/>
<path id="path174" class="st0" d="M197.5,28.2h0.5c0.3,0,0.5-0.1,0.5-0.4c0-0.4-0.4-0.4-0.6-0.4h-0.4V28.2z M196.8,27h1.1
	c0.8,0,1.1,0.3,1.1,0.8s-0.4,0.8-0.8,0.9l0.7,1.1h-0.6l-0.6-1.1h-0.2v1.1h-0.7V27z M197.8,30.4c1.1,0,1.9-0.8,1.9-2
	s-0.8-1.9-1.9-1.9c-1.1,0-1.9,0.8-1.9,1.9C196,29.6,196.7,30.4,197.8,30.4z M197.8,25.8c1.4,0,2.6,1.1,2.6,2.6
	c0,1.4-1.2,2.6-2.6,2.6c-1.5,0-2.6-1.2-2.6-2.6C195.2,26.9,196.3,25.8,197.8,25.8"/>
</svg>
