<?xml version="1.0" encoding="utf-8"?>
<!-- Generator: Adobe Illustrator 21.0.2, SVG Export Plug-In . SVG Version: 6.00 Build 0)  -->
<svg version="1.1" id="tdae" xmlns="http://www.w3.org/2000/svg" xmlns:xlink="http://www.w3.org/1999/xlink" x="0px" y="0px"
	 viewBox="0 0 299.8 302" style="enable-background:new 0 0 299.8 302;" xml:space="preserve">
<style type="text/css">
	.st0{fill:#FFFFFF;}
</style>
<g>
	<path class="st0" d="M143.7,153h-1.6l-6.4,14.8h1.9l1.6-3.9h7.4l1.7,3.9h1.9L143.7,153z M139.9,162.4l2.4-5.5
		c0.3-0.8,0.7-1.8,0.7-1.8h0c0,0,0.4,1,0.7,1.8l2.3,5.5H139.9z"/>
	<path class="st0" d="M267.7,198.4c3-1,4.7-3.3,4.7-6.5c0-4.4-3.2-7.2-8.5-7.2H257v22.7h2.7V199h4.3c0.4,0,0.8,0,1.2,0l5.1,8.5h3
		L267.7,198.4z M264.2,196.6h-4.5v-9.4h4.5c3.5,0,5.5,1.8,5.5,4.7C269.7,194.6,267.8,196.6,264.2,196.6z"/>
	<path class="st0" d="M167.2,184.3c-6.5,0-11.8,5-11.8,11.8c0,6.9,5.3,11.8,11.8,11.8c6.5,0,11.8-5,11.8-11.8
		C179,189.3,173.7,184.3,167.2,184.3z M167.2,205.3c-5.2,0-9.1-3.8-9.1-9.2c0-5.5,3.9-9.2,9.1-9.2c5.1,0,9.1,3.7,9.1,9.2
		C176.3,201.6,172.3,205.3,167.2,205.3z"/>
	<path class="st0" d="M291.2,69.6L158.3,1.8c-2.3-1.2-5.3-1.8-8.4-1.8c-3.2,0-6.2,0.6-8.4,1.8L8.6,69.6C3.8,72,0,77.8,0,82.7v135.5
		c0,4.9,3.8,10.7,8.6,13.2l132.9,67.8c2.3,1.2,5.3,1.8,8.4,1.8c3.2,0,6.2-0.6,8.4-1.8l132.9-67.8c4.8-2.4,8.6-8.2,8.6-13.2V82.7
		C299.8,77.8,296,72,291.2,69.6z M296.9,157.9H179.7v2.9h117.2v57.5c0,3.8-3.2,8.7-7,10.6L157,296.6c-1.8,0.9-4.4,1.5-7.1,1.5
		c-2.7,0-5.3-0.5-7.1-1.5L9.9,228.9c-3.8-1.9-7-6.8-7-10.6v-57.5H124v-2.9H2.9V82.7c0-3.8,3.2-8.7,7-10.6L142.8,4.4
		c1.8-0.9,4.4-1.5,7.1-1.5c2.7,0,5.3,0.5,7.1,1.5l132.9,67.8c3.8,1.9,7,6.8,7,10.6V157.9z"/>
	<path class="st0" d="M117.5,98h-6.7v34h6.7c7.8,0,12.3-3.9,12.3-17C129.8,101.9,125.4,98,117.5,98z M118.1,127.8h-2.3v-25.3h2.3
		c5,0,6.6,3.5,6.6,12.5C124.7,124.1,123.1,127.8,118.1,127.8z"/>
	<polygon class="st0" points="50.1,207.5 34.7,207.5 34.7,184.7 49.9,184.7 49.9,187.2 37.4,187.2 37.4,194.3 47.4,194.3 
		47.4,196.6 37.4,196.6 37.4,205 50.1,205 	"/>
	<path class="st0" d="M105.7,207.9c-4.9,0-8-2.9-8.7-6.7l2.6-0.7c0.3,2.6,2.5,5,6.2,5c3.4,0,5.4-1.8,5.4-4.2c0-3.3-3.9-4-7.1-5
		c-2.6-0.8-6.4-2-6.4-5.9c0-3.5,3.3-6.2,7.9-6.2c4.1,0,7.4,2.4,8.1,6.1l-2.5,0.7c-0.5-2.8-2.9-4.4-5.7-4.4c-3,0-5.1,1.4-5.1,3.7
		c0,2.5,3.2,3.3,6.2,4.2c3.2,0.9,7.5,2.4,7.5,6.8C114,205.1,110.7,207.9,105.7,207.9z"/>
	<polygon class="st0" points="259.5,98 277.4,98 277.4,102.5 271,102.5 271,132 265.9,132 265.9,102.5 259.5,102.5 	"/>
	<path class="st0" d="M245.5,97.6c6.1,0,8.5,4.3,9.1,11.7l-4.8,0.5c-0.6-5.3-1.7-7.6-4.4-7.6c-3.6,0-5.1,4.2-5.1,12.8
		c0,8.8,1.5,13,5.1,13c2.8,0,4-2.2,4.7-7.9l4.8,0.5c-0.9,6.8-3.3,11.9-9.5,11.9c-6.5,0-10.2-5-10.2-17.4
		C235.3,102.7,239.2,97.6,245.5,97.6z"/>
	<rect x="222.7" y="98" class="st0" width="5.1" height="34"/>
	<polygon class="st0" points="172.6,98 190.4,98 190.4,102.5 184,102.5 184,132 179,132 179,102.5 172.6,102.5 	"/>
	<rect x="137.3" y="98" class="st0" width="5.1" height="34"/>
	<polygon class="st0" points="43.2,102.5 36.9,102.5 36.9,132 31.8,132 31.8,102.5 25.4,102.5 25.4,98 43.2,98 	"/>
	<polygon class="st0" points="68.6,132 63.5,132 63.5,116.3 55,116.3 55,132 50,132 50,98 55,98 55,111.9 63.5,111.9 63.5,98 
		68.6,98 	"/>
	<polygon class="st0" points="92.4,132 77,132 77,98 91.9,98 91.9,102.5 82.1,102.5 82.1,112 89.1,112 89.1,116.2 82.1,116.2 
		82.1,127.7 92.4,127.7 	"/>
	<polygon class="st0" points="143.7,187.2 136.1,187.2 136.1,207.5 133.5,207.5 133.5,187.2 125.9,187.2 125.9,184.7 143.7,184.7 	
		"/>
	<path class="st0" d="M149.4,122.9l4.6-0.9c0.8,4,2.3,6.2,5.3,6.2c2.7,0,3.9-1.6,3.9-3.9c0-6.4-12.6-9.4-12.6-18.6
		c0-5.1,3.4-8.2,8.5-8.2c5.2,0,7.5,3.5,8.8,8.8l-4.5,1.1c-0.9-3.7-2.1-5.5-4.5-5.5c-2.1,0-3.4,1.2-3.4,3.4c0,6.8,12.6,9.4,12.6,18.7
		c0,5.1-3.6,8.5-8.8,8.5C153.2,132.5,150.5,128.6,149.4,122.9z"/>
	<polygon class="st0" points="156,154.7 156,153 167.7,153 167.7,154.7 162.7,154.7 162.7,167.8 161,167.8 161,154.7 	"/>
	<path class="st0" d="M202.7,207.5H200l-9.7-22.7h2.9L200,201c0.7,1.6,1.3,3.5,1.3,3.5h0c0,0,0.7-1.9,1.3-3.5l6.9-16.3h2.9
		L202.7,207.5z"/>
	<polygon class="st0" points="241.4,207.5 226,207.5 226,184.7 241.2,184.7 241.2,187.2 228.7,187.2 228.7,194.3 238.7,194.3 
		238.7,196.6 228.7,196.6 228.7,205 241.4,205 	"/>
	<path class="st0" d="M75.6,184.7h-2.4l-9.9,22.7h2.9l2.5-5.9H80l2.5,5.9h2.9L75.6,184.7z M69.7,199.2l3.6-8.4
		c0.5-1.2,1-2.8,1.1-2.8h0c0,0,0.6,1.6,1.1,2.8l3.6,8.4H69.7z"/>
	<path class="st0" d="M209.9,117.5c3.6-1.8,4.8-5.4,4.8-9.2c0-7.2-3.7-10.2-10.1-10.2h-7.4v34h4.9v-13.2h3.3l4.8,13.2h5L209.9,117.5
		z M204.7,114.7H202v-12.3h2.4c3.9,0,5.3,1.5,5.3,6C209.8,113.1,208.3,114.7,204.7,114.7z"/>
</g>
</svg>
