<?xml version="1.0" encoding="utf-8"?>
<!-- Generator: Adobe Illustrator 21.0.2, SVG Export Plug-In . SVG Version: 6.00 Build 0)  -->
<svg version="1.1" id="Layer_1" xmlns="http://www.w3.org/2000/svg" xmlns:xlink="http://www.w3.org/1999/xlink" x="0px" y="0px"
	 viewBox="0 0 90 29.6" style="enable-background:new 0 0 90 29.6;" xml:space="preserve">
<style type="text/css">
	.st0{fill:#FFFFFF;}
</style>
<path class="st0" d="M9.3,4.9C9.2,4.9,9.1,4.9,9,5L0.6,7.9C0.3,8,0.1,8.2,0,8.5c0,0.3,0,0.6,0.1,1s0.3,0.7,0.6,0.9
	c0.2,0.1,0.3,0.2,0.5,0.2c0.1,0,0.2,0,0.3,0l2.7-0.9l3.7,10.7c0.1,0.3,0.3,0.5,0.7,0.5c0.1,0,0.2,0,0.3,0c0.3,0,0.5,0,0.8-0.2
	c0.4-0.1,0.7-0.3,1-0.6c0.2-0.3,0.3-0.6,0.2-0.9L7.2,8.5l2.7-0.9c0.3-0.1,0.5-0.3,0.5-0.6c0.1-0.3,0-0.7-0.1-1
	C10.2,5.6,10,5.4,9.7,5.2C9.7,5,9.5,4.9,9.3,4.9"/>
<path class="st0" d="M26,1.3c-0.2,0-0.3,0-0.5,0.1c-0.4,0.1-0.8,0.2-1.1,0.4C24.1,2,24,2.3,24,2.6l0.9,5l-4,0.7l-0.9-5
	c-0.1-0.3-0.3-0.5-0.6-0.6c-0.2-0.1-0.4-0.1-0.6-0.1s-0.3,0-0.5,0.1c-0.4,0.1-0.8,0.2-1.1,0.4c-0.3,0.2-0.4,0.5-0.3,0.8l2.3,12.9
	c0.1,0.3,0.3,0.5,0.6,0.6c0.2,0.1,0.4,0.1,0.7,0.1c0.2,0,0.3,0,0.5,0c0.4-0.1,0.8-0.2,1.1-0.5c0.3-0.2,0.4-0.5,0.3-0.8l-1-5.5l4-0.7
	l1,5.5c0.1,0.3,0.3,0.5,0.6,0.6c0.2,0.1,0.4,0.1,0.7,0.1c0.2,0,0.3,0,0.5,0c0.4-0.1,0.8-0.2,1.1-0.5c0.3-0.2,0.4-0.5,0.3-0.8L27.2,2
	c-0.1-0.3-0.3-0.5-0.6-0.6C26.4,1.3,26.2,1.3,26,1.3"/>
<path class="st0" d="M41.1,0c-0.1,0-0.3,0-0.4,0l-4.3,0.1c-0.3,0-0.5,0.1-0.7,0.3s-0.3,0.4-0.3,0.7l0.5,13.1c0,0.3,0.2,0.6,0.5,0.7
	c0.3,0.1,0.6,0.2,1,0.2h0.1c0.4,0,0.8-0.1,1.1-0.3s0.5-0.4,0.4-0.7l-0.2-5h1.4l3,5.4c0.2,0.4,0.5,0.6,1,0.6c0,0,0,0,0.1,0
	c0.5,0,0.9-0.2,1.4-0.6c0.4-0.4,0.6-0.8,0.6-1.2L46.2,13l-2.7-4.5c1.6-0.7,2.4-2.1,2.3-4.3C45.8,1.4,44.2,0,41.1,0 M38.9,6.7
	l-0.1-3.8l2-0.1h0.1c0.5,0,1,0.1,1.3,0.4s0.5,0.8,0.5,1.5s-0.1,1.2-0.4,1.5s-0.8,0.5-1.4,0.5H38.9z"/>
<path class="st0" d="M55,0.3c-0.3,0-0.6,0.1-0.9,0.2c-0.3,0.1-0.5,0.4-0.5,0.7l-1,13.1c0,0.3,0.1,0.6,0.4,0.8
	c0.3,0.2,0.7,0.3,1.1,0.3c0.1,0,0.2,0,0.2,0c0.3,0,0.6-0.1,0.9-0.2c0.3-0.1,0.5-0.4,0.5-0.7l1-13.1c0-0.3-0.1-0.6-0.4-0.8
	c-0.3-0.2-0.7-0.3-1.1-0.3C55.2,0.3,55.1,0.3,55,0.3"/>
<path class="st0" d="M65,1.4c-0.3,0-0.6,0.1-0.9,0.2c-0.5,0.2-0.8,0.4-0.8,0.8v0.2l1.4,13.1c0,0.4,0.2,0.7,0.6,0.9
	c0.3,0.3,0.8,0.4,1.3,0.5c0.2,0,0.5,0.1,0.7,0.1s0.5,0,0.7-0.1c0.4-0.1,0.7-0.3,0.9-0.6L75,4.9l0-0.3c0.1-0.4-0.1-0.7-0.5-1
	S73.7,3,73.2,3c-0.1,0-0.3,0-0.4,0c-0.4,0-0.6,0.1-0.8,0.4l-4.8,9.9l-0.8-11c0-0.4-0.3-0.7-0.9-0.8C65.4,1.4,65.2,1.4,65,1.4"/>
<path class="st0" d="M81.8,5.3c-0.1,0-0.2,0-0.4,0c-0.3,0.1-0.5,0.3-0.6,0.6l-4.3,12.4c-0.1,0.3-0.1,0.6,0.2,0.8
	c0.2,0.3,0.5,0.4,0.9,0.6l6.9,2.4c0.1,0,0.2,0.1,0.3,0.1c0.2,0,0.4-0.1,0.5-0.2c0.2-0.2,0.4-0.5,0.6-0.8c0.1-0.4,0.2-0.7,0.1-1
	s-0.3-0.5-0.5-0.6l-5.2-1.8l1.1-3.3l2.9,1c0.1,0,0.2,0.1,0.3,0.1c0.2,0,0.3-0.1,0.5-0.2c0.2-0.2,0.4-0.4,0.5-0.7s0.1-0.6,0-0.9
	c-0.1-0.3-0.3-0.5-0.6-0.6l-2.9-1l1.1-3.3l5.2,1.8c0.1,0,0.2,0,0.3,0c0.2,0,0.4-0.1,0.5-0.2c0.3-0.2,0.4-0.5,0.6-0.9
	C90,9.1,90,8.8,90,8.5c-0.1-0.3-0.2-0.5-0.5-0.6l-6.9-2.4C82.2,5.4,82,5.3,81.8,5.3"/>
<path class="st0" d="M27.6,23.4l-0.3,0.1l-0.2,0.2L27,23.9l-0.2,0.3l-0.1,0.2l-0.1,0.2c-0.1,0.1-0.1,0.2-0.2,0.4
	c-0.1,0.2-0.2,0.4-0.3,0.6c-0.1,0.2-0.2,0.5-0.3,0.7c-0.1,0.2-0.2,0.4-0.3,0.6c-0.1,0.2-0.1,0.3-0.2,0.5l-0.1,0.2
	c-0.1,0.1-0.1,0.3-0.1,0.5s0,0.4,0,0.5c0,0.2,0.1,0.3,0.2,0.5l0.2,0.4h0.2h0.1l0.1-0.1l0.1-0.2l0.1-0.3v-0.1v-0.1v-0.1l0.1-0.1
	l0.1-0.1h0.1v-0.1v-0.1v-0.1l0.1-0.3l0.2-0.2v-0.3l0.1-0.3l0.1-0.3l0.1-0.2l0.1-0.1l0.1,0.1c0.3,0.5,0.7,0.8,1.2,0.8
	c0.2,0,0.4,0,0.6-0.1s0.4-0.2,0.6-0.3c0.2-0.1,0.4-0.2,0.6-0.4c0.2-0.1,0.4-0.3,0.6-0.4V26h0.1H31v0.1v0.1c-0.2,0.7-0.3,1.3-0.3,1.7
	c0,0.5,0.1,0.8,0.4,1h0.2l0.2-0.1l0.1-0.1l0.2-0.1v-0.1v-0.1c0.1-0.3,0.3-0.6,0.4-0.9s0.2-0.7,0.1-1.1l0.1-0.2l0.1-0.2v-0.3v-0.4
	l0.1-0.3v-0.3v-0.2h0.2v-0.1v-0.1l-0.1-0.2v-0.2l-0.2-0.3l-0.1-0.1l0,0.5l0,0h-0.1l-0.1-0.2l0,0l0,0L32,23.7h-0.2l-0.2,0.1
	c-0.1,0.3-0.2,0.5-0.4,0.7c-0.2,0.2-0.4,0.3-0.6,0.5h-0.4l-0.3,0.3l-0.1,0.1l-0.2,0.1l-0.2,0.1l-0.3,0.1l-0.2-0.1l-0.1-0.1v-0.2
	v-0.1v-0.1V25v-0.1v-0.5L28.5,24l-0.1-0.1l-0.1-0.1h-0.2H28h-0.1l-0.1-0.1v-0.1L27.6,23.4L27.6,23.4z"/>
<path class="st0" d="M37,23.5l-0.1,0.1c-0.1,0.2-0.3,0.4-0.4,0.5L36,24.5h-0.1h-0.1h-0.1h-0.1l-0.1,0.1l-0.2,0.3l-0.2,0.3L35,25.5
	l-0.2,0.3v0.1V26l-0.1,0.3l-0.1,0.3c-0.2,0.3-0.3,0.6-0.4,0.9c-0.1,0.3-0.3,0.6-0.4,0.9v0.2l-0.1,0.1l0.1,0.1v0.1V29v0.1v0.1
	l0.1,0.1l0.2,0.1h0.1h0.1h0.1h0.1v-0.1l0.1-0.1l0.1-0.1L35,29v-0.1v-0.2l0.1-0.2l0.1-0.2v-0.2l0,0l0,0l0.1-0.1v-0.1l0,0l0,0h0.1
	v-0.1v-0.1l0.1-0.1l0.1,0.2V28l0.1,0.1l0,0l0,0v0.1h0.1h0.3h0.4L37,28l0.3-0.1h0.3l-0.1,0.4l-0.3,0.2l-0.3,0.1l0.2,0.2l0.1,0.1
	l0.1,0.1l0.1,0.1v0.1v0.1h0.1l0.1,0.1l0.1,0.1l0.2,0.1l0.4-0.1l0.3-0.2l0.3-0.3l0.2-0.4v-0.4L39,27.9v-0.1v-0.1l0.4-0.3l0.3-0.3
	l0.1-0.2l-0.1-0.1l0,0l0,0l-0.1-0.1l-0.2-0.1h-0.1l0,0v-0.1h-0.1H39h-0.1L38.4,26l-0.1-0.4l-0.1-0.3L38.1,25v-0.4L38,24.3v-0.1V24
	v-0.1l-0.2-0.1l-0.3-0.1l-0.2-0.1h-0.1L37,23.5z M35.9,26.9l0.2-0.3l0,0l0.3-0.5l0.4-0.5v-0.1c0.1,0.2,0.1,0.4,0.2,0.6
	c0.1,0.2,0.1,0.4,0.1,0.6c-0.2,0-0.4,0.1-0.5,0.1c-0.2,0-0.3,0-0.5,0H36L35.9,26.9z"/>
<path class="st0" d="M43.6,23.4c-0.2,0-0.4,0.1-0.6,0.2l-0.4,0.5c-0.1,0.2-0.3,0.3-0.4,0.5c-0.1,0.2-0.3,0.3-0.4,0.5L41.6,25h-0.2
	l-0.2,0.5L41.1,26c0,0.2-0.1,0.3-0.1,0.5s-0.1,0.3-0.2,0.5v0.1v0.1v0.1h-0.1v0.3l-0.1,0.3l-0.1,0.3v0.3h-0.1l0.1,0.1l0.1,0.1v0.1
	v0.1V29v0.1l0.1,0.1v0.1h0.1h0.1H41h0.1l0.1-0.1h0.2l0.2-0.4c0.1-0.1,0.1-0.3,0.1-0.5l0,0l0,0l0.3,0.3l0.3,0.2L43,29
	c0.1,0.1,0.3,0.1,0.6,0.2c0.5,0.2,0.8,0.3,1.1,0.4c0.1,0,0.3,0,0.4,0c0.1,0,0.2,0,0.3-0.1l0.1-0.1l0.1-0.1l0.1-0.1l0.1-0.1h-0.1l0,0
	l0.1-0.2v-0.2l-0.1-0.2l-0.1-0.2h-0.3h-0.2l-0.3-0.1l-0.4-0.1L43.9,28l-0.3-0.1l-0.2-0.1L43,27.6l0,0l0,0c0.2-0.1,0.4-0.2,0.7-0.2
	c0.3-0.1,0.5-0.2,0.7-0.3c0.2-0.1,0.4-0.2,0.6-0.4c0.2-0.2,0.3-0.4,0.3-0.7v-0.1v-0.1v-0.1v-0.1l-0.1-0.3L45,24.9l-0.1-0.3l-0.2-0.2
	v-0.1l-0.1-0.1l-0.1-0.1l-0.4-0.4L43.6,23.4z M42.5,26.2l0.1-0.4l0.2-0.3l0.2-0.3l0.2-0.3l0.3,0.2c0.1,0.1,0.2,0.3,0.2,0.5
	c-0.2,0.1-0.4,0.2-0.7,0.3C43,26.1,42.8,26.2,42.5,26.2"/>
<path class="st0" d="M48.7,23.5l-0.3,0.2L48.3,24l-0.1,0.3L48,24.5c-0.1,0.3-0.1,0.6-0.2,0.8c-0.1,0.3-0.2,0.5-0.3,0.8
	c-0.1,0.2-0.2,0.5-0.3,0.8s-0.1,0.6-0.2,0.9h-0.1v0.1l0,0l0,0l0,0l0,0V28v0.1v0.1l-0.1,0.1l0.2,0.1v0.2l0.1,0.2l0.1,0.2v0.2l0.1,0.1
	l0.1,0.1l0.1,0.1h0.2c0.2-0.1,0.4-0.2,0.5-0.4c0.1-0.2,0.3-0.3,0.4-0.5c0.1-0.2,0.2-0.4,0.4-0.5c0.1-0.2,0.3-0.3,0.5-0.4h0.1h0.1
	L50,28l0.3,0.3l0.3,0.2l0.2,0.1h0.1H51v0.1l0,0c0.2,0.1,0.4,0.1,0.7,0.2c0.2,0,0.3,0,0.6,0c0.1,0,0.2,0,0.3,0
	c0.2-0.1,0.4-0.2,0.5-0.4c0.1-0.2,0.2-0.4,0.2-0.6l-0.2-0.1L53,27.7l-0.2-0.1l-0.2-0.1l0,0l0,0c-0.2,0-0.5,0-0.7,0s-0.4,0-0.6-0.1
	c-0.2,0-0.4-0.1-0.5-0.2c-0.2-0.1-0.3-0.3-0.4-0.5l0.1-0.1l0.1-0.1h0.1h0.1l0.1-0.1l0.1-0.1l0.1-0.1l0.1-0.1l0.4-0.3l0.4-0.2
	l0.4-0.3l0.4-0.3l0.1-0.2l0.1-0.1l-0.1-0.2l-0.1-0.1l-0.1-0.1l-0.1-0.2L52.3,24l-0.2-0.2l-0.2,0.1L51.6,24v0.1v0.1h-0.1h-0.1
	l-0.3,0.2l-0.3,0.2l-0.3,0.2L50.2,25c-0.2,0.1-0.3,0.3-0.5,0.4s-0.4,0.3-0.5,0.4v-0.2l0.1-0.2l0.1-0.2l0.2-0.2v-0.1l0,0l0,0v-0.1
	l0.2-0.2v-0.3L49.6,24l-0.2-0.2h-0.1l-0.1-0.1l-0.1-0.1H49h-0.1h-0.1L48.7,23.5z"/>
<path class="st0" d="M59,23.5L59,23.5L59,23.5L59,23.5L59,23.5L59,23.5L59,23.5l-0.2-0.1h-0.1l0,0c-0.3,0-0.5,0.1-0.7,0.1
	s-0.4,0.1-0.6,0.1c-0.2,0-0.4,0.1-0.6,0.1c-0.2,0-0.4,0.1-0.7,0.2L55.7,24l-0.4,0.1L55,24.3l-0.2,0.2l0.1,0.3v0.3l0.1,0.3l0.2,0.3
	L55,26.1l-0.1,0.3l-0.1,0.3L54.6,27h-0.1l-0.1,0.1v0.1l-0.1,0.1l-0.1,0.1l-0.1,0.1v0.3v0.3l0.1,0.3v0.3l0.1,0.1l0.1,0.2
	c0.1,0.1,0.3,0.2,0.5,0.3c0.2,0,0.4,0.1,0.6,0.1h0.1c0.2,0,0.3,0,0.5,0s0.4-0.1,0.5-0.1h0.1h0.1c0.2,0,0.5-0.1,0.6-0.1
	c0.2,0,0.4-0.1,0.5-0.1l0.4-0.3c0.1-0.1,0.2-0.3,0.3-0.5h-0.1v-0.1v-0.1V28h-0.1l-0.1-0.1l-0.1-0.1l-0.1-0.1l-0.5,0.1l-0.5,0.1H57
	c-0.1,0-0.3,0-0.4,0h-0.4h-0.4c0,0,0,0-0.1,0s-0.3,0-0.5,0l0.2-0.5l0.3-0.4H56h0.3h0.2h0.2h0.1h0.1h0.4l0.4-0.1l0.3-0.2l0.3-0.2
	v-0.2l-0.1-0.2H58l0.3-0.1l-0.1-0.1L58,25.8v-0.1v-0.1c-0.3,0-0.5,0-0.8,0.1c-0.1,0-0.3,0-0.4,0c-0.1,0-0.2,0-0.3,0v-0.2v-0.2h0.2
	l0.1-0.1H57h0.1h0.1h0.1l0.4-0.2l0.4-0.1l0.4-0.1l0.4-0.1l0.3-0.2l0.3-0.3v-0.1V24v-0.1v-0.1l-0.3-0.2L59,23.5z"/>
<path class="st0" d="M65.7,23.4c-0.2,0-0.4,0-0.6,0s-0.4,0.1-0.6,0.1L64,23.6h-0.4l-0.1-0.1h-0.3h-0.1v0.1L63,23.7
	c-0.3,0-0.5,0-0.8,0.1c-0.2,0-0.4,0-0.7,0.1c-0.2,0-0.4,0-0.6,0h-0.1h-0.1h-0.1V24v0.1v0.1v0.3l0.1,0.2v0.1v0.1V25h0.1l0.1,0.1
	l0.1,0.1l0.2,0.1h0.1h0.1h0.1h0.1h0.1h0.1h0.1H62h0.1h0.1h0.1h0.2h0.1h0.1v0.1l-0.1,0.1l-0.1,0.2v0.2L62.4,26l-0.1,0.1l-0.1,0.4
	L62,26.7c-0.1,0.2-0.2,0.5-0.3,0.7c-0.1,0.3-0.1,0.6-0.1,0.9l0.1,0.1v0.2l0.1,0.2l0.1,0.2v0.1H62l0.1,0.1l0,0l0,0l0.1,0.1l0.1,0.1
	l0.1,0.1h0.1c0.2,0,0.4-0.1,0.5-0.2s0.1-0.3,0.1-0.4L63,28.8l-0.1-0.1l0,0l0,0v-0.1v-0.1v-0.1v-0.1v-0.1v-0.1V28v-0.1v-0.1l0.1-0.2
	v-0.1l0.1-0.1v-0.1l0.1-0.3l0.2-0.3l0.1-0.3l0.2-0.3l0.1-0.4l0.1-0.3l0.1-0.3l0.1-0.4h0.3h0.4c0.2,0,0.4-0.1,0.5-0.1
	c0.2,0,0.4,0,0.5,0H66h0.1h0.1h0.1h0.1h0.1h0.1l0.1-0.1l0.1-0.1v-0.1c0-0.2,0-0.3-0.1-0.4l-0.2-0.2l-0.1-0.1l-0.1-0.1l-0.1-0.1H66
	L65.7,23.4z"/>
<path class="st0" d="M21.6,25.8c-0.3,0-0.6,0.1-1,0.1c-0.3,0-0.7,0-1.1,0s-0.7,0-1.1,0s-0.7,0-1.1,0s-0.7,0-1,0
	c-0.3,0-0.6,0.1-0.9,0.1v0.2l-0.1,0.2l-0.1,0.2v0.2c0.2,0.1,0.5,0.1,0.8,0.2c0.3,0,0.7,0.1,1,0.1c0.4,0,0.7,0,1.1,0.1
	c0.3,0,0.5,0,0.8,0c0.1,0,0.3,0,0.4,0c0.4,0,0.7,0,1.1,0c0.3,0,0.6,0,0.9-0.1L21.6,25.8z"/>
<path class="st0" d="M74.8,25.8c-0.3,0-0.6,0.1-1,0.1c-0.3,0-0.7,0-1.1,0s-0.7,0-1.1,0s-0.7,0-1.1,0s-0.7,0-1,0S68.9,26,68.6,26v0.2
	l-0.1,0.2l-0.1,0.2v0.2c0.2,0.1,0.5,0.1,0.8,0.2c0.3,0,0.7,0.1,1,0.1s0.7,0,1.1,0.1c0.3,0,0.5,0,0.8,0c0.1,0,0.3,0,0.4,0
	c0.4,0,0.7,0,1.1,0c0.3,0,0.6,0,0.9-0.1L74.8,25.8z"/>
</svg>
