<svg id="EPA" xmlns="http://www.w3.org/2000/svg" viewBox="0 0 91.6 30.2"><style>.st0{fill:#fff}</style><path class="st0" d="M22.8 11.6c-1 4-4.6 7.2-8.7 7.2s-7.7-3.2-8.7-7.2c0 0 2 2.2 0 0 .6.7 1.2 1 2.2 1s1.6-.3 2.2-1c.6.7 1.3 1 2.2 1s1.5-.3 2.2-1c.6.7 1.2 1 2.2 1s1.6-.3 2.2-1c.6.7 1.3 1 2.2 1 .7-.1 1.3-.3 2-1m0-2.2c0-5.2-3.9-9.4-8.7-9.4S5.3 4.2 5.3 9.4h7.9c-1-.4-1.6-1.4-1.6-2.5 0-1.5 1.2-2.7 2.5-2.7 1.4 0 2.6 1.2 2.6 2.7 0 1.1-.6 2.1-1.5 2.5h7.6m-8.2 20.8c.1-8 6-14.9 13.5-15.2 0 8.1-6 14.8-13.5 15.2m-1.1 0c-.1-8-6-14.9-13.5-15.2 0 8.1 6.1 14.8 13.5 15.2M48.4.7H30.7v28.9h17.7v-4.5H36.2v-7.8h12.2v-4.5H36.2V5.1h12.2V.7M55 12.8h5.5c1.8 0 3.1-1.9 3-3.8 0-1.9-1.2-3.8-3-3.8h-5.1v24.4h-5.6V.7h12.6c4.1 0 7.1 3.9 7.1 8.2 0 4.4-3 8.4-7.1 8.4H55v-4.5m8.7 16.8h6l2.6-7.6h10.9l-1.6-4.8h-7.7l3.8-11 7.9 23.4h6L80.9.7h-6.8L63.7 29.6"/></svg>