<svg id="ford-factory" xmlns="http://www.w3.org/2000/svg" viewBox="0 0 509.8 171.2"><style>.st0{fill:#fff}</style><path class="st0" d="M90.2 47.7V38H68.5v93.2h9.7V88.4h9.7v-9.5h-9.7V47.7h12zm35.2 68.7V52.8c0-9.4-6.3-16-13.9-16-7.6 0-13.9 6.6-13.9 16v63.6c0 9.5 6.3 16 13.9 16 7.6 0 13.9-6.5 13.9-16zm-9.8 1.3c0 2.7-1.5 4.5-4.1 4.5-2.7 0-4.1-1.8-4.1-4.5V51.6c0-2.5 1.4-4.5 4.1-4.5 2.5 0 4.1 2 4.1 4.5v66.1zm46.7 13.8v-2.7c-1.1-2.4-1.5-5.3-1.5-9.5V96.8c0-5-2.1-8.4-5.7-10.6 3.6-2.2 5.5-5.7 5.5-10.6V52.7c0-11.9-6.9-14.7-12.3-14.7h-14.1v93.2h9.8V90.6h3.8c2.2 0 3.6 2 3.6 4.8V120c0 5.9 1.5 11.5 4.8 11.5h6.1zm-11.4-55.3c0 3.4-1.3 4.9-3.4 4.9h-3.6V47.9h4.1c1.8 0 2.9 1.3 2.9 4.5v23.8zm46.4 38.5V54.5c0-12.2-5.3-16.5-12.7-16.5h-14.4v93.2h14.4c7.4 0 12.7-4.3 12.7-16.5zm-9.6.9c0 4.2-1 5.9-3.6 5.9H180V47.9h4.1c2.7 0 3.6 1.7 3.6 5.9v61.8zm50.7-67.9V38h-21.7v93.2h9.7V88.4h9.7v-9.5h-9.7V47.7h12zm32.1 83.5L261.2 38h-10.5l-9.4 93.2h8.7l1.5-17.9h7.8l1 17.9h10.2zm-11.8-28h-6.3l3.6-42.1 2.7 42.1zm44.9 13.2V98.5h-8.3v18.9c0 2.7-1.4 4.8-4.2 4.8-2.9 0-4.3-2.1-4.3-4.8V51.9c0-2.7 1.4-4.8 4.3-4.8 2.8 0 4.2 2.1 4.2 4.8v18.8h8.3V52.8c0-9.4-4.9-16-12.7-16-7.6 0-13.9 6.6-13.9 16v63.6c0 9.5 6.3 16 13.9 16 7.8 0 12.7-6.5 12.7-16zm33.5-68.3V38h-26.6v10.1h8.7v83.2h9.7V48.1h8.2zm35 68.3V52.8c0-9.4-6.3-16-13.9-16s-13.9 6.6-13.9 16v63.6c0 9.5 6.3 16 13.9 16s13.9-6.5 13.9-16zm-9.8 1.3c0 2.7-1.5 4.5-4.1 4.5-2.7 0-4.1-1.8-4.1-4.5V51.6c0-2.5 1.4-4.5 4.1-4.5 2.5 0 4.1 2 4.1 4.5v66.1zm46.7 13.8v-2.7c-1.1-2.4-1.5-5.3-1.5-9.5V96.8c0-5-2.1-8.4-5.7-10.6 3.6-2.2 5.5-5.7 5.5-10.6V52.7c0-11.9-6.9-14.7-12.3-14.7h-14.1v93.2h9.8V90.6h3.8c2.2 0 3.6 2 3.6 4.8V120c0 5.9 1.5 11.5 4.8 11.5h6.1zm-11.5-55.3c0 3.4-1.3 4.9-3.4 4.9h-3.6V47.9h4.1c1.8 0 2.9 1.3 2.9 4.5v23.8zM443.7 38h-9.2l-5.9 41.2-5.9-41.2h-9.4l9.8 56.7v36.5h9.7V94.7L443.7 38zm66.1 82.7h-50v-6.3h50v6.3zm-459.8 0H0v-6.3h50v6.3zm459.8-16.5h-50v-6.3h50v6.3zm-459.8 0H0v-6.3h50v6.3zm459.8-16.4h-50v-6.3h50v6.3zM50 87.8H0v-6.3h50v6.3zm459.8-16.5h-50V65h50v6.3zM50 71.3H0V65h50v6.3zm459.8-16.4h-50v-6.3h50v6.3zM50 54.9H0v-6.3h50v6.3zm65.6-51.5h8.1L116 17.3h4.3L128 3V.1h-12.3v3.3h-.1zm34.7.2V.1h-14.2v3.5h5.2v13.7h3.8V3.6h5.2zm23.5 13.7V.1H170v6.8h-7V.1h-3.8v17.1h3.8v-6.9h7v6.9h3.8v.1zm35.6-1.6l-2.5-2.5c.9-1.2 1.6-2.4 2.3-3.6L206.3 8c-.5 1.1-1.1 2.1-1.7 2.9l-2.3-2.3c2.1-.8 3.6-2.2 3.6-4.5 0-2.4-1.9-4.3-4.8-4.3-3.3 0-5.2 2.2-5.2 4.5 0 1.2.4 2.3 1.2 3.5-2.2 1-3.3 2.5-3.3 4.7 0 3.1 2.5 5 5.8 5 2 0 3.6-.8 5-1.9l2 2 2.8-1.9zm-6.7-11.3c0 1.1-.8 1.7-2.3 2.3-.7-.8-1-1.4-1-2.2 0-1.1.7-1.8 1.7-1.8 1 .1 1.6.7 1.6 1.7zm-.2 9.1c-.8.6-1.6 1-2.5 1-1.4 0-2.4-.8-2.4-2 0-.9.5-1.7 1.6-2.3l3.3 3.3zm39.2-1.3c0-3-2-4.3-5.4-5.2-3-.8-3.7-1.1-3.7-2.3 0-.8.8-1.5 2.2-1.5 1.4 0 2.9.6 4.5 1.7l2-2.8c-1.7-1.4-3.9-2.2-6.4-2.2-3.5 0-6 2.1-6 5.2 0 3.4 2.2 4.4 5.7 5.2 2.9.7 3.5 1.2 3.5 2.2 0 1-.9 1.6-2.5 1.6-2 0-3.6-.8-5.1-2.1l-2.2 2.7c2.1 1.8 4.7 2.7 7.3 2.7 3.5.1 6.1-1.8 6.1-5.2zm26.1 5.1L260.4 0H257l-7.3 17.3h3.8l1.6-3.8h7.3l1.6 3.8h3.8zm-6.9-7.2h-4.6l2.3-5.6 2.3 5.6zm30.9 7.2V.1h-3.7v10.6l-8-10.6h-3.5v17.1h3.7V6.4l8.3 10.9h3.2zM315 3.6V.1h-14.2v3.5h5.2v13.7h3.8V3.6h5.2zm25.7 13.7L333.4 0h-3.5l-7.3 17.3h3.8l1.6-3.8h7.3l1.6 3.8h3.8zm-6.8-7.2h-4.6l2.3-5.6 2.3 5.6zm37.2-6.5V.1H358v17.1h3.8v-6.6h8.2V7.2h-8.2V3.6h9.3zm22.2 13.7v-3.4H384v-3.6h8.1V7H384V3.5h9.2V.1h-12.9v17.1h13v.1zM156.4 166.1c0-3-2-4.3-5.4-5.2-3-.8-3.7-1.1-3.7-2.3 0-.8.8-1.5 2.2-1.5 1.4 0 2.9.6 4.5 1.7l2-2.8c-1.7-1.4-3.9-2.2-6.4-2.2-3.5 0-6 2.1-6 5.2 0 3.4 2.2 4.4 5.7 5.2 2.9.7 3.5 1.2 3.5 2.2 0 1-.9 1.6-2.5 1.6-2 0-3.6-.8-5.1-2.1l-2.2 2.7c2.1 1.8 4.7 2.7 7.3 2.7 3.5.1 6.1-1.8 6.1-5.2zm16.9 5.1V154h-3.8v17.1h3.8v.1zm29.3 0V154h-3.7v10.6l-8-10.6h-3.5v17.1h3.7v-10.9l8.3 10.9h3.2v.1zm28.9-2.8l-2.4-2.4c-1.3 1.2-2.5 2-4.5 2-2.9 0-5-2.5-5-5.4 0-2.9 2.1-5.3 5-5.3 1.7 0 3.1.7 4.4 1.9l2.4-2.8c-1.6-1.6-3.5-2.6-6.8-2.6-5.3 0-8.9 4-8.9 8.9s3.7 8.8 8.8 8.8c3.3 0 5.2-1.2 7-3.1zm25.6 2.8v-3.4h-9.3v-3.6h8.1v-3.4h-8.1v-3.5h9.2V154h-13v17.1h13.1v.1zm28.8-15.8l.8 3.1 3-.7v13.5h3.7V154h-2.6l-4.9 1.4zm34.3 6.7c0-3.4-.8-5.3-2-6.5-1.3-1.3-2.6-1.9-4.9-1.9-3.9 0-6.5 2.5-6.5 6s2.4 5.6 6.1 5.6c1.5 0 2.6-.5 3.5-1.2-.2 2.3-1.4 3.9-3.5 3.9-1.4 0-2.5-.5-3.7-1.5l-2 2.9c1.4 1.2 3.1 2 5.6 2 4.8.1 7.4-3.7 7.4-9.3zm-3.8-2.5c0 1.5-1.1 2.6-2.9 2.6-1.9 0-3-1.1-3-2.6s1.1-2.6 2.9-2.6c1.8 0 3 1.1 3 2.6zm15.1-4.2l.8 3.1 3-.7v13.5h3.7V154h-2.6l-4.9 1.4zm29.3-1.5l-9.4 10.9.6 2.7h8.4v3.7h3.6v-3.7h2.3v-3.1H364v-10.5h-3.2zm-.4 10.5h-4.6l4.6-5.3v5.3zm75-17.9h-368V143h368v3.5zm13-119h-381V24h381v3.5z"/></svg>