<?xml version="1.0" encoding="utf-8"?>
<!-- Generator: Adobe Illustrator 21.0.2, SVG Export Plug-In . SVG Version: 6.00 Build 0)  -->
<svg version="1.1" id="ford-factory" xmlns="http://www.w3.org/2000/svg" xmlns:xlink="http://www.w3.org/1999/xlink" x="0px"
	 y="0px" viewBox="0 0 509.8 171.2" style="enable-background:new 0 0 509.8 171.2;" xml:space="preserve">
<style type="text/css">
	.st0{fill:#FFFFFF;}
</style>
<path class="st0" d="M90.2,47.7V38H68.5v93.2h9.7V88.4h9.7v-9.5h-9.7V47.7H90.2L90.2,47.7z M125.4,116.4V52.8c0-9.4-6.3-16-13.9-16
	c-7.6,0-13.9,6.6-13.9,16v63.6c0,9.5,6.3,16,13.9,16C119.1,132.4,125.4,125.9,125.4,116.4L125.4,116.4z M115.6,117.7
	c0,2.7-1.5,4.5-4.1,4.5c-2.7,0-4.1-1.8-4.1-4.5V51.6c0-2.5,1.4-4.5,4.1-4.5c2.5,0,4.1,2,4.1,4.5V117.7L115.6,117.7z M162.3,131.5
	v-2.7c-1.1-2.4-1.5-5.3-1.5-9.5V96.8c0-5-2.1-8.4-5.7-10.6c3.6-2.2,5.5-5.7,5.5-10.6V52.7c0-11.9-6.9-14.7-12.3-14.7h-14.1v93.2h9.8
	V90.6h3.8c2.2,0,3.6,2,3.6,4.8V120c0,5.9,1.5,11.5,4.8,11.5H162.3L162.3,131.5z M150.9,76.2c0,3.4-1.3,4.9-3.4,4.9h-3.6V47.9h4.1
	c1.8,0,2.9,1.3,2.9,4.5V76.2L150.9,76.2z M197.3,114.7V54.5c0-12.2-5.3-16.5-12.7-16.5h-14.4v93.2h14.4
	C192,131.2,197.3,126.9,197.3,114.7L197.3,114.7z M187.7,115.6c0,4.2-1,5.9-3.6,5.9H180V47.9h4.1c2.7,0,3.6,1.7,3.6,5.9V115.6
	L187.7,115.6z M238.4,47.7V38h-21.7v93.2h9.7V88.4h9.7v-9.5h-9.7V47.7H238.4L238.4,47.7z M270.5,131.2L261.2,38h-10.5l-9.4,93.2h8.7
	l1.5-17.9h7.8l1,17.9H270.5L270.5,131.2z M258.7,103.2h-6.3l3.6-42.1L258.7,103.2L258.7,103.2z M303.6,116.4V98.5h-8.3v18.9
	c0,2.7-1.4,4.8-4.2,4.8c-2.9,0-4.3-2.1-4.3-4.8V51.9c0-2.7,1.4-4.8,4.3-4.8c2.8,0,4.2,2.1,4.2,4.8v18.8h8.3V52.8
	c0-9.4-4.9-16-12.7-16c-7.6,0-13.9,6.6-13.9,16v63.6c0,9.5,6.3,16,13.9,16C298.7,132.4,303.6,125.9,303.6,116.4L303.6,116.4z
	 M337.1,48.1V38h-26.6v10.1h8.7v83.2h9.7V48.1H337.1L337.1,48.1z M372.1,116.4V52.8c0-9.4-6.3-16-13.9-16s-13.9,6.6-13.9,16v63.6
	c0,9.5,6.3,16,13.9,16S372.1,125.9,372.1,116.4L372.1,116.4z M362.3,117.7c0,2.7-1.5,4.5-4.1,4.5c-2.7,0-4.1-1.8-4.1-4.5V51.6
	c0-2.5,1.4-4.5,4.1-4.5c2.5,0,4.1,2,4.1,4.5V117.7L362.3,117.7z M409,131.5v-2.7c-1.1-2.4-1.5-5.3-1.5-9.5V96.8
	c0-5-2.1-8.4-5.7-10.6c3.6-2.2,5.5-5.7,5.5-10.6V52.7c0-11.9-6.9-14.7-12.3-14.7h-14.1v93.2h9.8V90.6h3.8c2.2,0,3.6,2,3.6,4.8V120
	c0,5.9,1.5,11.5,4.8,11.5H409L409,131.5z M397.5,76.2c0,3.4-1.3,4.9-3.4,4.9h-3.6V47.9h4.1c1.8,0,2.9,1.3,2.9,4.5V76.2L397.5,76.2z
	 M443.7,38h-9.2l-5.9,41.2L422.7,38h-9.4l9.8,56.7v36.5h9.7V94.7L443.7,38L443.7,38z"/>
<path class="st0" d="M509.8,120.7h-50v-6.3h50V120.7z M50,120.7H0v-6.3h50V120.7z M509.8,104.2h-50v-6.3h50V104.2z M50,104.2H0v-6.3
	h50V104.2z M509.8,87.8h-50v-6.3h50V87.8z M50,87.8H0v-6.3h50V87.8z M509.8,71.3h-50V65h50V71.3z M50,71.3H0V65h50V71.3z
	 M509.8,54.9h-50v-6.3h50V54.9z M50,54.9H0v-6.3h50V54.9z"/>
<path class="st0" d="M115.6,3.4h8.1L116,17.3h4.3L128,3V0.1h-12.3V3.4L115.6,3.4z M150.3,3.6V0.1h-14.2v3.5h5.2v13.7h3.8V3.6H150.3
	L150.3,3.6z M173.8,17.3V0.1H170v6.8h-7V0.1h-3.8v17.1h3.8v-6.9h7v6.9H173.8L173.8,17.3z M209.4,15.7l-2.5-2.5
	c0.9-1.2,1.6-2.4,2.3-3.6L206.3,8c-0.5,1.1-1.1,2.1-1.7,2.9l-2.3-2.3c2.1-0.8,3.6-2.2,3.6-4.5c0-2.4-1.9-4.3-4.8-4.3
	c-3.3,0-5.2,2.2-5.2,4.5c0,1.2,0.4,2.3,1.2,3.5c-2.2,1-3.3,2.5-3.3,4.7c0,3.1,2.5,5,5.8,5c2,0,3.6-0.8,5-1.9l2,2L209.4,15.7
	L209.4,15.7z M202.7,4.4c0,1.1-0.8,1.7-2.3,2.3c-0.7-0.8-1-1.4-1-2.2c0-1.1,0.7-1.8,1.7-1.8C202.1,2.8,202.7,3.4,202.7,4.4
	L202.7,4.4z M202.5,13.5c-0.8,0.6-1.6,1-2.5,1c-1.4,0-2.4-0.8-2.4-2c0-0.9,0.5-1.7,1.6-2.3L202.5,13.5L202.5,13.5z M241.7,12.2
	L241.7,12.2c0-3-2-4.3-5.4-5.2c-3-0.8-3.7-1.1-3.7-2.3v0c0-0.8,0.8-1.5,2.2-1.5c1.4,0,2.9,0.6,4.5,1.7l2-2.8
	c-1.7-1.4-3.9-2.2-6.4-2.2c-3.5,0-6,2.1-6,5.2v0c0,3.4,2.2,4.4,5.7,5.2c2.9,0.7,3.5,1.2,3.5,2.2v0c0,1-0.9,1.6-2.5,1.6
	c-2,0-3.6-0.8-5.1-2.1l-2.2,2.7c2.1,1.8,4.7,2.7,7.3,2.7C239.1,17.5,241.7,15.6,241.7,12.2L241.7,12.2z M267.8,17.3L260.4,0H257
	l-7.3,17.3h3.8l1.6-3.8h7.3l1.6,3.8H267.8L267.8,17.3z M260.9,10.1h-4.6l2.3-5.6L260.9,10.1L260.9,10.1z M291.8,17.3V0.1h-3.7v10.6
	l-8-10.6h-3.5v17.1h3.7V6.4l8.3,10.9H291.8L291.8,17.3z M315,3.6V0.1h-14.2v3.5h5.2v13.7h3.8V3.6H315L315,3.6z M340.7,17.3L333.4,0
	h-3.5l-7.3,17.3h3.8l1.6-3.8h7.3l1.6,3.8H340.7L340.7,17.3z M333.9,10.1h-4.6l2.3-5.6L333.9,10.1L333.9,10.1z M371.1,3.6V0.1h-13.1
	v17.1h3.8v-6.6h8.2V7.2h-8.2V3.6H371.1L371.1,3.6z M393.3,17.3v-3.4H384v-3.6h8.1V7H384V3.5h9.2V0.1h-12.9v17.1H393.3L393.3,17.3z"
	/>
<path class="st0" d="M156.4,166.1L156.4,166.1c0-3-2-4.3-5.4-5.2c-3-0.8-3.7-1.1-3.7-2.3v0c0-0.8,0.8-1.5,2.2-1.5
	c1.4,0,2.9,0.6,4.5,1.7l2-2.8c-1.7-1.4-3.9-2.2-6.4-2.2c-3.5,0-6,2.1-6,5.2v0c0,3.4,2.2,4.4,5.7,5.2c2.9,0.7,3.5,1.2,3.5,2.2v0
	c0,1-0.9,1.6-2.5,1.6c-2,0-3.6-0.8-5.1-2.1l-2.2,2.7c2.1,1.8,4.7,2.7,7.3,2.7C153.8,171.4,156.4,169.5,156.4,166.1L156.4,166.1z
	 M173.3,171.2V154h-3.8v17.1H173.3L173.3,171.2z M202.6,171.2V154h-3.7v10.6l-8-10.6h-3.5v17.1h3.7v-10.9l8.3,10.9H202.6
	L202.6,171.2z M231.5,168.4l-2.4-2.4c-1.3,1.2-2.5,2-4.5,2c-2.9,0-5-2.5-5-5.4v0c0-2.9,2.1-5.3,5-5.3c1.7,0,3.1,0.7,4.4,1.9l2.4-2.8
	c-1.6-1.6-3.5-2.6-6.8-2.6c-5.3,0-8.9,4-8.9,8.9v0c0,4.9,3.7,8.8,8.8,8.8C227.8,171.5,229.7,170.3,231.5,168.4L231.5,168.4z
	 M257.1,171.2v-3.4h-9.3v-3.6h8.1v-3.4h-8.1v-3.5h9.2V154H244v17.1H257.1L257.1,171.2z M285.9,155.4l0.8,3.1l3-0.7v13.5h3.7v-17.3
	h-2.6L285.9,155.4L285.9,155.4z M320.2,162.1c0-3.4-0.8-5.3-2-6.5c-1.3-1.3-2.6-1.9-4.9-1.9c-3.9,0-6.5,2.5-6.5,6
	c0,3.5,2.4,5.6,6.1,5.6c1.5,0,2.6-0.5,3.5-1.2c-0.2,2.3-1.4,3.9-3.5,3.9c-1.4,0-2.5-0.5-3.7-1.5l-2,2.9c1.4,1.2,3.1,2,5.6,2
	C317.6,171.5,320.2,167.7,320.2,162.1L320.2,162.1z M316.4,159.6c0,1.5-1.1,2.6-2.9,2.6c-1.9,0-3-1.1-3-2.6c0-1.5,1.1-2.6,2.9-2.6
	C315.2,157,316.4,158.1,316.4,159.6L316.4,159.6z M331.5,155.4l0.8,3.1l3-0.7v13.5h3.7v-17.3h-2.6L331.5,155.4L331.5,155.4z
	 M360.8,153.9l-9.4,10.9l0.6,2.7h8.4v3.7h3.6v-3.7h2.3v-3.1H364v-10.5H360.8L360.8,153.9z M360.4,164.4h-4.6l4.6-5.3V164.4
	L360.4,164.4z"/>
<path class="st0" d="M435.4,146.5h-368V143h368V146.5z M448.4,27.5h-381V24h381V27.5z"/>
</svg>
