<svg id="Layer_1" xmlns="http://www.w3.org/2000/svg" viewBox="0 0 432 247"><style>.st0{fill:#fff}</style><path class="st0" d="M74.9 109.6c0 44.7 25.2 55 46.9 55s46.7-10.3 46.7-55c0-43.4-25-54.8-46.7-54.8s-46.9 11.4-46.9 54.8m26.5 0c0-17.8 3.9-36.6 20.5-36.6 16.5 0 20.3 18.8 20.3 36.6s-3.7 36.8-20.3 36.8-20.5-19-20.5-36.8m-56.9 97.1h18.2V0H44.5v206.7zM1.3 162.9H27V56.5H1.4l-.1 106.4zm83.9 35.3c2.9-1.9 6.6-2.9 10.1-2.9 5.2 0 8.4 2.2 9.5 3.4 1.5 1.5 3.1 3.7 3.1 8.7V226c0 2.1.1 4.2.3 5.5h-5.3l-.3-4.8h-.1c-1.6 2.7-4.5 5.3-10 5.3-5.9 0-10.3-3.4-10.3-10.3s4.5-12 16.8-12h3.4v-1.6c0-2.7-.2-4.2-1.3-5.7-1.2-1.6-3.5-2.2-5.9-2.2-3.6 0-7.1 1.5-9.2 3.7l-.8-5.7zm17 15.8c-1.1-.1-2.5-.1-4.1-.1-6.9 0-10.2 3.3-10.2 7.4 0 3.8 2 6.2 6 6.2 5.1 0 8.3-4.1 8.3-9V214zm29.7 17c-1.4.5-3.4.9-5 .9-5.4 0-8.3-2.2-8.3-8.5v-23H113v-4.8h5.7v-7.1l5.9-1.7v9h7.3v4.8h-7.3v21.1c0 4.1 1.1 5.6 3.7 5.6 1.5 0 2.5-.4 3.6-.9v4.6zm22.9-48.4h11.8c4.9 0 8 1.3 10.6 3.8 2.4 2.4 3.8 5.8 3.8 10.1 0 9.5-5.5 14.6-15.9 14.6H161v20.4h-6.2v-48.9zM161 206h3.4c7.5 0 10.2-3.5 10.2-9 0-6.7-3.8-9.4-10.1-9.4H161V206zm26.9-27h5.9v52.5h-5.9V179zm16.4 19.2c2.9-1.9 6.6-2.9 10.1-2.9 5.2 0 8.4 2.2 9.5 3.4 1.5 1.5 3.1 3.7 3.1 8.7V226c0 2.1.1 4.2.3 5.5H222l-.3-4.8h-.1c-1.6 2.7-4.5 5.3-10 5.3-5.9 0-10.3-3.4-10.3-10.3s4.5-12 16.8-12h3.4v-1.6c0-2.7-.2-4.2-1.3-5.7-1.2-1.6-3.5-2.2-5.9-2.2-3.6 0-7.1 1.5-9.2 3.7l-.8-5.7zm17.1 15.8c-1.1-.1-2.5-.1-4.1-.1-6.9 0-10.2 3.3-10.2 7.4 0 3.8 2 6.2 6 6.2 5.1 0 8.3-4.1 8.3-9V214zm25.1 24.7c-1.7 6.1-4.3 8.3-8.7 8.3-1.4 0-2.9-.1-4-.4l.3-5.3c.9.4 2 .7 3.2.7 1.7 0 2.9-.8 3.9-4.5l1.4-5.5-11.3-36.3h6.2l8 29.1h.1l7.4-29.1h5.9l-12.4 43zm18.7-40.5c2.9-1.9 6.6-2.9 10.1-2.9 5.2 0 8.4 2.2 9.5 3.4 1.5 1.5 3.1 3.7 3.1 8.7V226c0 2.1.1 4.2.3 5.5h-5.3l-.3-4.8h-.1c-1.6 2.7-4.5 5.3-10 5.3-5.9 0-10.3-3.4-10.3-10.3s4.5-12 16.8-12h3.4v-1.6c0-2.7-.2-4.2-1.3-5.7-1.2-1.6-3.5-2.2-5.9-2.2-3.6 0-7.1 1.5-9.2 3.7l-.8-5.7zm17.1 15.8c-1.1-.1-2.5-.1-4.1-.1-6.9 0-10.2 3.3-10.2 7.4 0 3.8 2 6.2 6 6.2 5.1 0 8.3-4.1 8.3-9V214zm23.3-31.4h6.7l11.3 39.8h.1l12-39.8h6.2l-15.3 48.9h-6.2l-14.8-48.9zm46.6-1.5v7h-6.4v-7h6.4zm-6.2 14.7h5.9v35.7H346v-35.7zm13.5 28.7c2.7 1.6 5.5 2.7 8.4 2.7 4.5 0 6.8-2.3 6.8-5 0-2.4-1.3-4.1-4.5-5.6l-3.9-1.8c-5.1-2.3-7-4.6-7-9.2 0-5.9 4.5-10.4 11.5-10.4 2.9 0 5.5.5 7.6 1.3l-.3 5c-1.8-.8-4.3-1.5-7-1.5-3.8 0-5.9 2.1-5.9 4.9 0 2.9 2.1 4.5 6 6l2.1.8c4.3 1.7 7.1 4.7 7.1 9.1 0 6.2-3.3 11.1-11.5 11.1-3.7 0-7.1-.8-9.7-2.1l.3-5.3zm43.2 6.5c-1.4.5-3.4.9-5 .9-5.4 0-8.3-2.2-8.3-8.5v-23h-5.7v-4.8h5.7v-7.1l5.9-1.7v9h7.4v4.8h-7.4v21.1c0 4.1 1.1 5.6 3.7 5.6 1.5 0 2.5-.4 3.6-.9l.1 4.6zm6.3-32.8c2.9-1.9 6.6-2.9 10.1-2.9 5.2 0 8.4 2.2 9.5 3.4 1.5 1.5 3.1 3.7 3.1 8.7V226c0 2.1.1 4.2.3 5.5h-5.3l-.3-4.8h-.1c-1.6 2.7-4.5 5.3-10 5.3-5.9 0-10.3-3.4-10.3-10.3s4.5-12 16.8-12h3.4v-1.6c0-2.7-.2-4.2-1.3-5.7-1.2-1.6-3.5-2.2-6-2.2-3.6 0-7.1 1.5-9.2 3.7l-.7-5.7zm17.1 15.8c-1.1-.1-2.5-.1-4.1-.1-6.9 0-10.2 3.3-10.2 7.4 0 3.8 2 6.2 6 6.2 5.1 0 8.3-4.1 8.3-9V214zM14.5 45.7c8 0 14.5-6.5 14.5-14.5s-6.5-14.5-14.5-14.5S0 23.2 0 31.2s6.5 14.5 14.5 14.5"/></svg>