<?xml version="1.0" encoding="utf-8"?>
<!-- Generator: Adobe Illustrator 21.0.2, SVG Export Plug-In . SVG Version: 6.00 Build 0)  -->
<svg version="1.1" id="Layer_1" xmlns="http://www.w3.org/2000/svg" xmlns:xlink="http://www.w3.org/1999/xlink" x="0px" y="0px"
	 viewBox="0 0 252 43.7" style="enable-background:new 0 0 252 43.7;" xml:space="preserve">
<style type="text/css">
	.st0{fill:#FFFFFF;}
</style>
<path class="st0" d="M77.5,34.2l-12-15.7v15.7h-5.4V9.4h5l11.6,15.2V9.4h5.4v24.8H77.5z"/>
<path class="st0" d="M87.8,34.2V9.4h18.7v4.8H93.2v5h11.7v4.8H93.2v5.2h13.4v4.8H87.8z"/>
<path class="st0" d="M138.1,34.4h-4.7l-5.6-16.2l-5.6,16.2h-4.7L109,9.4h5.8l5.1,16.8l5.6-16.8h4.7l5.6,16.8l5.1-16.8h5.7
	L138.1,34.4z"/>
<path class="st0" d="M168.6,34.2V18l-7,10.6h-0.1l-6.9-10.5v16.1h-5.3V9.4h5.9l6.5,10.5l6.5-10.5h5.9v24.8H168.6z"/>
<path class="st0" d="M196.7,34.2l-2.3-5.6H184l-2.3,5.6h-5.6l10.6-24.9h5l10.6,24.9H196.7z M189.2,15.8l-3.3,8h6.6L189.2,15.8z"/>
<path class="st0" d="M219.6,34.2l-5.3-7.9H210v7.9h-5.4V9.4h11.3c5.8,0,9.3,3.1,9.3,8.2v0.1c0,4-2.2,6.5-5.3,7.7l6,8.8H219.6z
	 M219.7,17.9c0-2.3-1.6-3.5-4.3-3.5H210v7.1h5.5C218.2,21.5,219.7,20,219.7,17.9L219.7,17.9z"/>
<path class="st0" d="M245.5,34.2l-7.7-10.5l-2.9,3v7.6h-5.4V9.4h5.4v10.8l10-10.8h6.6l-10.1,10.5L252,34.2H245.5z"/>
<polygon class="st0" points="18.1,9.5 26.3,18.5 26.4,18.5 26.4,9.4 26.4,0 0,0 0,34.2 10.3,34.2 10.3,9.5 "/>
<polygon class="st0" points="28.9,34.2 20.7,25.2 20.6,25.2 20.6,34.2 20.6,43.7 47,43.7 47,9.4 36.7,9.4 36.7,34.2 "/>
</svg>
