<svg id="Layer_1" xmlns="http://www.w3.org/2000/svg" viewBox="0 0 252 43.7"><style>.st0{fill:#fff}</style><path class="st0" d="M77.5 34.2l-12-15.7v15.7h-5.4V9.4h5l11.6 15.2V9.4h5.4v24.8h-4.6zm10.3 0V9.4h18.7v4.8H93.2v5h11.7V24H93.2v5.2h13.4V34H87.8zm50.3.2h-4.7l-5.6-16.2-5.6 16.2h-4.7l-8.5-25h5.8l5.1 16.8 5.6-16.8h4.7l5.6 16.8 5.1-16.8h5.7l-8.5 25zm30.5-.2V18l-7 10.6h-.1l-6.9-10.5v16.1h-5.3V9.4h5.9l6.5 10.5 6.5-10.5h5.9v24.8h-5.5zm28.1 0l-2.3-5.6H184l-2.3 5.6h-5.6l10.6-24.9h5l10.6 24.9h-5.6zm-7.5-18.4l-3.3 8h6.6l-3.3-8zm30.4 18.4l-5.3-7.9H210v7.9h-5.4V9.4h11.3c5.8 0 9.3 3.1 9.3 8.2v.1c0 4-2.2 6.5-5.3 7.7l6 8.8h-6.3zm.1-16.3c0-2.3-1.6-3.5-4.3-3.5H210v7.1h5.5c2.7 0 4.2-1.5 4.2-3.6zm25.8 16.3l-7.7-10.5-2.9 3v7.6h-5.4V9.4h5.4v10.8l10-10.8h6.6l-10.1 10.5L252 34.2h-6.5zM18.1 9.5l8.2 9h.1V0H0v34.2h10.3V9.5zm10.8 24.7l-8.2-9h-.1v18.5H47V9.4H36.7v24.8z"/></svg>