<svg id="planned-parenthood" xmlns="http://www.w3.org/2000/svg" viewBox="0 0 200.4 62.7"><style>.st0{fill:#fff}</style><path id="path18" class="st0" d="M47.5 20.1v23.3c0 8-6.5 14.3-14.5 14.3H18.4l2.8-6.4h11.9c4.4 0 8.1-3.5 8.1-8V26.4H24.8c-4.4 0-8 3.6-8 8v28.2h-6.5V34.4c0-7.9 6.5-14.5 14.5-14.5h9.8v-13H22.4c-8.8 0-16 7.2-16 16v39.8H0V22.9C0 10.6 9.9.6 22.3.6H41V20h6.5"/><path id="path22" class="st0" d="M60.5 57c-.2-1.4-1.1-2-2.2-2-1.9 0-2.5 1.9-2.5 3.2 0 1.2.5 3.1 2.5 3.1 1.1 0 2-.5 2.2-2h2.2c-.3 2.7-2.1 3.8-4.6 3.8-2.8 0-4.6-1.5-4.6-4.9 0-3.5 1.8-4.9 4.7-4.9 1.9 0 4.3.6 4.6 3.8l-2.3-.1"/><path id="path26" class="st0" d="M68.7 59.3c-.4.2-.8.3-1.1.3l-1.1.2c-.7 0-1 .2-1 .8 0 .7.4 1 1.2 1 1 0 2.1-.6 2.1-1.8v-.5h-.1zm-5-1.4c.3-2.2 1.9-2.5 3.5-2.5 2.7 0 3.4 1.1 3.4 2.3v3.5c0 .6 0 1 .1 1.4h-2c0-.2-.1-.5-.1-.8-.7.9-1.9 1.1-2.8 1.1-1.5 0-2.6-.7-2.6-2.2 0-1.7 1.4-2 2.5-2.2l2-.1c.6 0 .8-.2.8-.8 0-.5-.4-.8-1.6-.8-.8 0-1.2 0-1.5 1l-1.7.1"/><path id="path30" class="st0" d="M71.7 55.7h1.9v1.4c.7-1.1 1.2-1.7 2.3-1.7.2 0 .5 0 .7.2v2.1c-.4-.1-.7-.2-1-.2-1.3 0-2 .8-2 2.1v3.1h-1.9v-7"/><path id="path34" class="st0" d="M82.8 58.5c0-.4-.5-1.6-1.9-1.6-1.5 0-1.7 1.4-1.7 1.6h3.6zm1.9 2.2c-.6 1.7-2 2.3-3.7 2.3-2.4 0-3.9-1.1-3.9-3.8s1.5-3.8 3.9-3.8c2.5 0 3.8 1.5 3.8 4.1v.3h-5.6c0 .7.5 1.7 1.9 1.7.8 0 1.3-.4 1.6-.9h2"/><path id="path36" class="st0" d="M85.9 60.6h2.2v2.2h-2.2v-2.2z"/><path id="path40" class="st0" d="M93.8 55.3v7.3h-1.1v-9.3h1.4l4.9 7.4v-7.4h1.1v9.3h-1.3l-5-7.3"/><path id="path44" class="st0" d="M104.5 56.8c-1.5 0-2.1 1.3-2.1 2.5 0 1.3.6 2.5 2.1 2.5 1.6 0 2.1-1.3 2.1-2.5s-.6-2.5-2.1-2.5zm0-1.1c2.2 0 3.2 1.6 3.2 3.6s-1 3.7-3.2 3.7-3.3-1.7-3.3-3.7 1.1-3.6 3.3-3.6"/><path id="path48" class="st0" d="M120.2 58.3c0-1.2-.7-1.6-1.4-1.6-1 0-1.9.5-1.9 1.7v4.2h-1v-4.3c0-1.2-.7-1.6-1.4-1.6-1 0-1.9.6-1.9 2v4h-1.1v-6.8h1.1v1h.1c.5-1 1.4-1.3 2.2-1.3.8 0 1.5.4 1.9 1.3.4-.8 1.2-1.3 2.2-1.3.6 0 2.2.4 2.2 2.4v4.7h-1.1l.1-4.4"/><path id="path52" class="st0" d="M126.8 59.1c-.2.3-.4.4-1 .5l-1.2.2c-.8.1-1.3.4-1.3 1 0 .7.6 1.1 1.3 1.1 1.2 0 2.2-.8 2.2-1.9v-.9zm-4.4-1.1c.1-1.7 1.1-2.3 2.8-2.3 1.1 0 2.6.4 2.6 2v3.7c0 .4.1.5.4.5h.4v.9c-.3.1-.6.1-.8.1-.6 0-.9-.2-1-1-.4.7-1.5 1.1-2.4 1.1-1.9 0-2.3-1.2-2.3-2 0-1.3.6-1.9 2.5-2.2l1.2-.1c.6-.1 1-.3 1-.9 0-.9-.8-1.1-1.6-1.1-1 0-1.8.3-1.8 1.3h-1"/><path id="path56" class="st0" d="M129.5 53.8h1.1v2.1h1.6v1h-1.6v4.2c0 .6.3.8.8.8.3 0 .5 0 .8-.1v1.1c-.4.1-.8.1-1.2.1-1.1 0-1.5-.7-1.5-1.6v-4.5h-1.1v-1h1.1v-2.1"/><path id="path60" class="st0" d="M133.6 53.8h1v2.1h1.7v1h-1.8v4.2c0 .6.4.8 1 .8.2 0 .5 0 .8-.1v1.1c-.4.1-.8.1-1.2.1-1 0-1.5-.7-1.5-1.6v-4.5h-1.3v-1h1.3v-2.1"/><path id="path64" class="st0" d="M141.8 58.7c-.2-1.3-.9-1.9-2-1.9s-1.9.6-2.1 1.9h4.1zm-4 1c0 1.4 1.1 2.2 2.1 2.2.5 0 1.4-.3 1.8-1.2h1.1c-.5 1.7-1.8 2.3-2.9 2.3-2.2 0-3.3-1.7-3.3-3.7s1.1-3.6 3.3-3.6c1.5 0 3.1 1 3.1 3.8v.2h-5.2"/><path id="path68" class="st0" d="M143.8 55.9h1.1v1.3c.5-1.1 1.3-1.5 2-1.5.1 0 .4 0 .5.1v1.4c-.3-.2-.5-.2-.8-.2-1 0-1.8.8-1.8 2.2v3.5h-1.1l.1-6.8"/><path id="path72" class="st0" d="M158.7 55.9h1.1l-2.2 6.8h-1.1l-1.4-5.2-1.4 5.2h-1.2l-2.2-6.8h1.2l1.5 5.2h.1l1.4-5.2h1.1l1.5 5.2 1.6-5.2"/><path id="path76" class="st0" d="M160.6 53.4h1v3.5h.1c.5-1 1.4-1.3 2.2-1.3 1.4 0 2.3.8 2.3 2.4v4.6h-1v-4.3c0-1-.6-1.6-1.7-1.6-1 0-1.9.6-1.9 2v4h-1.1v-9.3"/><path id="path80" class="st0" d="M171.8 59.1c-.1.3-.4.4-1 .5l-1.3.2c-.8.1-1.3.4-1.3 1 0 .7.5 1.1 1.3 1.1 1.3 0 2.2-.8 2.2-1.9v-.9h.1zm-4.3-1.1c.2-1.7 1.1-2.3 2.8-2.3 1.1 0 2.6.4 2.6 2v3.7c0 .4.1.5.5.5h.4v.9c-.2.1-.5.1-.8.1-.5 0-.9-.2-.9-1-.5.7-1.5 1.1-2.5 1.1-1.9 0-2.2-1.2-2.2-2 0-1.3.6-1.9 2.3-2.2l1.3-.1c.6-.1 1-.3 1-.9 0-.9-.8-1.1-1.6-1.1-.9 0-1.8.3-1.8 1.3h-1.1"/><path id="path84" class="st0" d="M174.6 53.8h1.1v2.1h1.6v1h-1.6v4.2c0 .6.2.8.8.8.3 0 .5 0 .8-.1v1.1c-.4.1-.8.1-1.2.1-1.1 0-1.5-.7-1.5-1.6v-4.5h-1.1v-1h1.1v-2.1"/><path id="path86" class="st0" d="M178.4 61.2h1.3v1.6h-1.3v-1.6z"/><path id="path90" class="st0" d="M57.5 10.5V3.7H63c1.5 0 2.2 1.1 2.2 3.5 0 2.2-.9 3.3-2.4 3.3h-5.3zm0 9.5v-6.4H64c3.7 0 5.4-3 5.4-6.4 0-3.8-1.3-6.7-5.5-6.7H53.8v19.4h3.7"/><path id="path102" class="st0" d="M74.6 0h-3.5v16.2c0 2.1.6 3.5 1.5 4.6l3.1-1.3c-.9-1-1.1-2.1-1.1-3.4V0"/><path id="path106" class="st0" d="M86.2 17.3c-.8.3-1.8.5-2.9.5-2.1 0-2.6-.2-2.6-2.1s.8-2.1 2.6-2.1c1.1 0 2.1.1 2.9.2v3.5zm3.4-6.4c0-4.2-2-5.5-6.2-5.5-1.9 0-4.1.4-5.6.8l.7 2.9c1.1-.5 2.7-.8 4.3-.8 2.9 0 3.5.7 3.5 3.1-1.1-.2-2.2-.4-3.5-.4-3.3 0-5.6.7-5.6 4.7 0 3.8 1.5 4.8 6 4.8 2.1 0 4.7-.5 6.5-1.1l-.1-8.5"/><path id="path110" class="st0" d="M95.2 9c.8-.2 1.6-.3 2.6-.3 2.4 0 3 .8 3 3.9v7.5h3.4v-7.9c0-5.2-1.8-6.8-5.7-6.8-2.4 0-5.1.6-6.8 1.4v13.3h3.5V9"/><path id="path114" class="st0" d="M109.8 9c.8-.2 1.6-.3 2.6-.3 2.4 0 3 .8 3 3.9v7.5h3.4v-7.9c0-5.2-1.8-6.8-5.7-6.8-2.2 0-5.1.6-6.8 1.4v13.3h3.5V9"/><path id="path118" class="st0" d="M124.4 11.3c.3-2.3 1.1-3 3.2-3 1.9 0 2.7.5 2.8 3h-6zm7.8 5.7c-1.1.4-3 .6-4.1.6-2.4 0-3.7-.6-3.7-3.7h9.2c.3-6.9-1.7-8.5-6.2-8.5-4.1 0-6.7 1.8-6.7 7.5 0 5.8 2.9 7.6 7 7.6 1.4 0 3.6-.4 4.9-.9l-.4-2.6"/><path id="path130" class="st0" d="M144.8 17.2c-.8.2-1.8.4-2.7.4-2.5 0-3.3-.8-3.3-4.6 0-3.5.8-4.5 3.2-4.5 1.7 0 2.8.5 2.8 1.3v7.4zM148.3.1h-3.5v6.2c-.8-.4-1.8-.8-3.4-.8-3.8 0-6.2 1.8-6.2 7.6s2.2 7.5 6.9 7.5c2 0 4.7-.5 6.2-1V.1"/><path id="path134" class="st0" d="M57.5 36.4v-6.8H63c1.5 0 2.2 1.1 2.2 3.4 0 2.2-.9 3.4-2.4 3.4h-5.3zm0 9.6v-6.4H64c3.7 0 5.4-3.2 5.4-6.4 0-3.9-1.3-6.8-5.5-6.8H53.8v19.5h3.7"/><path id="path138" class="st0" d="M79.6 43.2c-.8.3-1.9.5-2.8.5-2.2 0-2.6-.3-2.6-2.2 0-1.8.6-2.1 2.6-2.1 1 0 2 .1 2.8.3v3.5zm3.4-6.4c0-4.2-1.9-5.5-6.1-5.5-2.1 0-4.3.4-5.6.8l.5 2.8c1.2-.4 2.9-.7 4.4-.7 3 0 3.5.6 3.5 3.2-1.2-.3-2.3-.4-3.5-.4-3.4 0-5.6.6-5.6 4.6 0 3.7 1.5 4.7 6 4.7 2 0 4.6-.4 6.5-1.1l-.1-8.4"/><path id="path142" class="st0" d="M85.1 46h3.4v-9.9c0-1 1.6-1.6 3.3-1.6.7 0 1.3.1 1.9.2v-3.3c-.6-.1-1.1-.1-1.5-.1-2.1 0-3.1.6-3.7 1.5v-1.1h-3.4V46"/><path id="path146" class="st0" d="M97.8 37.1c.3-2.3 1.1-3.1 3.2-3.1 1.9 0 2.7.5 2.8 3.1h-6zm7.8 5.7c-1.1.3-3 .6-4 .6-2.5 0-3.7-.7-3.7-3.7h9.2c.2-6.9-1.7-8.4-6.2-8.4-4.1 0-6.7 1.7-6.7 7.3 0 5.9 2.8 7.7 7 7.7 1.4 0 3.5-.3 4.9-.8l-.5-2.7"/><path id="path150" class="st0" d="M112.3 34.9c.8-.3 1.6-.4 2.6-.4 2.5 0 3.1.8 3.1 3.9v7.7h3.5v-8c0-5-1.8-6.6-5.8-6.6-2.2 0-5 .5-6.8 1.2v13.4h3.5l-.1-11.2"/><path id="path154" class="st0" d="M133.1 34.9v-3.1h-4.6V28l-3.5 1.3v2.4h-2.4v3.1h2.4v6.4c0 4.2 1.6 5.2 4.7 5.2 1.4 0 2.9-.3 3.9-.7L133 43c-.8.2-1.5.4-2.4.4-1.7 0-2.2-.7-2.2-2.5v-6.1l4.7.1"/><path id="path158" class="st0" d="M147.3 37.9c0-5.3-1.8-6.5-5.2-6.5-1.4 0-3 .5-4 .9v-6.5h-3.4V46h3.4V35.7c0-.8 1.3-1.3 2.8-1.3 2.2 0 2.8 1.3 2.8 3.7V46h3.5l.1-8.1"/><path id="path162" class="st0" d="M152.6 38.8c0-4 .7-4.7 3.1-4.7 2.5 0 3.3.7 3.3 4.7 0 3.9-.7 4.6-3.3 4.6-2.4.1-3.1-.7-3.1-4.6zm-3.6-.1c0 5.9 2.2 7.7 6.8 7.7s6.8-1.7 6.8-7.7c0-5.7-2.3-7.3-6.8-7.3-4.6-.1-6.8 1.6-6.8 7.3"/><path id="path166" class="st0" d="M167.7 38.8c0-4 .8-4.7 3.2-4.7s3.1.7 3.1 4.7c0 3.9-.8 4.6-3.1 4.6-2.5.1-3.2-.7-3.2-4.6zm-3.5-.1c0 5.9 2.2 7.7 6.8 7.7 4.5 0 6.8-1.7 6.8-7.7 0-5.7-2.3-7.3-6.8-7.3s-6.8 1.6-6.8 7.3"/><path id="path170" class="st0" d="M188.8 43c-.8.2-1.8.5-2.8.5-2.4 0-3.2-.8-3.2-4.7 0-3.5.8-4.5 3.2-4.5 1.7 0 2.9.6 2.9 1.4V43h-.1zm3.5-17.2h-3.5v6.4c-.8-.5-1.8-.8-3.4-.8-3.8 0-6.2 1.7-6.2 7.5s2.1 7.5 6.8 7.5c2.1 0 4.7-.4 6.3-1V25.8"/><path id="path174" class="st0" d="M197.5 28.2h.5c.3 0 .5-.1.5-.4 0-.4-.4-.4-.6-.4h-.4v.8zm-.7-1.2h1.1c.8 0 1.1.3 1.1.8s-.4.8-.8.9l.7 1.1h-.6l-.6-1.1h-.2v1.1h-.7V27zm1 3.4c1.1 0 1.9-.8 1.9-2s-.8-1.9-1.9-1.9c-1.1 0-1.9.8-1.9 1.9.1 1.2.8 2 1.9 2zm0-4.6c1.4 0 2.6 1.1 2.6 2.6 0 1.4-1.2 2.6-2.6 2.6-1.5 0-2.6-1.2-2.6-2.6 0-1.5 1.1-2.6 2.6-2.6"/></svg>