<svg id="tdae" xmlns="http://www.w3.org/2000/svg" viewBox="0 0 299.8 302"><style>.st0{fill:#fff}</style><path class="st0" d="M143.7 153h-1.6l-6.4 14.8h1.9l1.6-3.9h7.4l1.7 3.9h1.9l-6.5-14.8zm-3.8 9.4l2.4-5.5c.3-.8.7-1.8.7-1.8s.4 1 .7 1.8l2.3 5.5h-6.1zm127.8 36c3-1 4.7-3.3 4.7-6.5 0-4.4-3.2-7.2-8.5-7.2H257v22.7h2.7V199h5.5l5.1 8.5h3l-5.6-9.1zm-3.5-1.8h-4.5v-9.4h4.5c3.5 0 5.5 1.8 5.5 4.7 0 2.7-1.9 4.7-5.5 4.7zm-97-12.3c-6.5 0-11.8 5-11.8 11.8 0 6.9 5.3 11.8 11.8 11.8 6.5 0 11.8-5 11.8-11.8 0-6.8-5.3-11.8-11.8-11.8zm0 21c-5.2 0-9.1-3.8-9.1-9.2 0-5.5 3.9-9.2 9.1-9.2 5.1 0 9.1 3.7 9.1 9.2 0 5.5-4 9.2-9.1 9.2z"/><path class="st0" d="M291.2 69.6L158.3 1.8C156 .6 153 0 149.9 0c-3.2 0-6.2.6-8.4 1.8L8.6 69.6C3.8 72 0 77.8 0 82.7v135.5c0 4.9 3.8 10.7 8.6 13.2l132.9 67.8c2.3 1.2 5.3 1.8 8.4 1.8 3.2 0 6.2-.6 8.4-1.8l132.9-67.8c4.8-2.4 8.6-8.2 8.6-13.2V82.7c0-4.9-3.8-10.7-8.6-13.1zm5.7 88.3H179.7v2.9h117.2v57.5c0 3.8-3.2 8.7-7 10.6L157 296.6c-1.8.9-4.4 1.5-7.1 1.5-2.7 0-5.3-.5-7.1-1.5L9.9 228.9c-3.8-1.9-7-6.8-7-10.6v-57.5H124v-2.9H2.9V82.7c0-3.8 3.2-8.7 7-10.6L142.8 4.4c1.8-.9 4.4-1.5 7.1-1.5 2.7 0 5.3.5 7.1 1.5l132.9 67.8c3.8 1.9 7 6.8 7 10.6v75.1z"/><path class="st0" d="M117.5 98h-6.7v34h6.7c7.8 0 12.3-3.9 12.3-17s-4.4-17-12.3-17zm.6 29.8h-2.3v-25.3h2.3c5 0 6.6 3.5 6.6 12.5 0 9.1-1.6 12.8-6.6 12.8zm-68 79.7H34.7v-22.8h15.2v2.5H37.4v7.1h10v2.3h-10v8.4h12.7zm55.6.4c-4.9 0-8-2.9-8.7-6.7l2.6-.7c.3 2.6 2.5 5 6.2 5 3.4 0 5.4-1.8 5.4-4.2 0-3.3-3.9-4-7.1-5-2.6-.8-6.4-2-6.4-5.9 0-3.5 3.3-6.2 7.9-6.2 4.1 0 7.4 2.4 8.1 6.1l-2.5.7c-.5-2.8-2.9-4.4-5.7-4.4-3 0-5.1 1.4-5.1 3.7 0 2.5 3.2 3.3 6.2 4.2 3.2.9 7.5 2.4 7.5 6.8-.1 3.8-3.4 6.6-8.4 6.6zM259.5 98h17.9v4.5H271V132h-5.1v-29.5h-6.4zm-14-.4c6.1 0 8.5 4.3 9.1 11.7l-4.8.5c-.6-5.3-1.7-7.6-4.4-7.6-3.6 0-5.1 4.2-5.1 12.8 0 8.8 1.5 13 5.1 13 2.8 0 4-2.2 4.7-7.9l4.8.5c-.9 6.8-3.3 11.9-9.5 11.9-6.5 0-10.2-5-10.2-17.4.1-12.4 4-17.5 10.3-17.5zm-22.8.4h5.1v34h-5.1zm-50.1 0h17.8v4.5H184V132h-5v-29.5h-6.4zm-35.3 0h5.1v34h-5.1zm-94.1 4.5h-6.3V132h-5.1v-29.5h-6.4V98h17.8zM68.6 132h-5.1v-15.7H55V132h-5V98h5v13.9h8.5V98h5.1zm23.8 0H77V98h14.9v4.5h-9.8v9.5h7v4.2h-7v11.5h10.3zm51.3 55.2h-7.6v20.3h-2.6v-20.3h-7.6v-2.5h17.8zm5.7-64.3l4.6-.9c.8 4 2.3 6.2 5.3 6.2 2.7 0 3.9-1.6 3.9-3.9 0-6.4-12.6-9.4-12.6-18.6 0-5.1 3.4-8.2 8.5-8.2 5.2 0 7.5 3.5 8.8 8.8l-4.5 1.1c-.9-3.7-2.1-5.5-4.5-5.5-2.1 0-3.4 1.2-3.4 3.4 0 6.8 12.6 9.4 12.6 18.7 0 5.1-3.6 8.5-8.8 8.5-6.1 0-8.8-3.9-9.9-9.6zm6.6 31.8V153h11.7v1.7h-5v13.1H161v-13.1zm46.7 52.8H200l-9.7-22.7h2.9L200 201c.7 1.6 1.3 3.5 1.3 3.5s.7-1.9 1.3-3.5l6.9-16.3h2.9l-9.7 22.8zm38.7 0H226v-22.8h15.2v2.5h-12.5v7.1h10v2.3h-10v8.4h12.7zM75.6 184.7h-2.4l-9.9 22.7h2.9l2.5-5.9H80l2.5 5.9h2.9l-9.8-22.7zm-5.9 14.5l3.6-8.4c.5-1.2 1-2.8 1.1-2.8 0 0 .6 1.6 1.1 2.8l3.6 8.4h-9.4zm140.2-81.7c3.6-1.8 4.8-5.4 4.8-9.2 0-7.2-3.7-10.2-10.1-10.2h-7.4v34h4.9v-13.2h3.3l4.8 13.2h5l-5.3-14.6zm-5.2-2.8H202v-12.3h2.4c3.9 0 5.3 1.5 5.3 6 .1 4.7-1.4 6.3-5 6.3z"/></svg>